<?xml version="1.0" standalone="no"?>
<!DOCTYPE svg PUBLIC "-//W3C//DTD SVG 20010904//EN"
 "http://www.w3.org/TR/2001/REC-SVG-20010904/DTD/svg10.dtd">
<svg version="1.0" xmlns="http://www.w3.org/2000/svg"
 width="722.000000pt" height="722.000000pt" viewBox="0 0 722.000000 722.000000"
 preserveAspectRatio="xMidYMid meet">
<metadata>
Created by potrace 1.11, written by Peter Selinger 2001-2013
</metadata>
<g transform="translate(0.000000,722.000000) scale(0.100000,-0.100000)"
fill="#000000" stroke="none">
<path d="M1159 7125 c-2 -1 -29 -5 -59 -9 -30 -3 -70 -10 -87 -15 -18 -5 -33
-8 -33 -6 0 9 -202 -68 -258 -97 -325 -173 -546 -476 -612 -839 -16 -90 -17
-257 -15 -2525 1 -1336 5 -2451 9 -2479 33 -240 153 -476 335 -655 86 -86 224
-190 251 -190 5 0 10 -4 10 -10 0 -5 4 -10 9 -10 5 0 35 -12 67 -27 33 -15 61
-28 64 -29 3 0 12 -3 20 -7 8 -3 31 -10 51 -17 34 -10 53 -15 108 -26 14 -3
27 -7 31 -9 3 -2 46 -6 95 -10 114 -9 4902 -10 4970 -1 28 4 64 8 80 10 54 7
148 35 236 69 85 33 207 100 221 121 5 7 8 7 8 1 0 -7 3 -7 8 0 4 6 24 23 45
38 78 59 198 188 252 272 111 172 176 358 191 542 9 113 9 4778 0 4858 -20
177 -72 338 -151 470 -19 32 -35 60 -35 64 0 4 -13 21 -30 39 -16 18 -30 37
-30 41 0 8 -154 162 -190 189 -165 124 -334 198 -545 238 -38 7 -5009 17
-5016 9z"/>
</g>
</svg>
