<svg version="1.1" viewBox="0.0 0.0 464.8582677165354 323.75853018372703" fill="none" stroke="none" stroke-linecap="square" stroke-miterlimit="10" xmlns:xlink="http://www.w3.org/1999/xlink" xmlns="http://www.w3.org/2000/svg"><clipPath id="p.0"><path d="m0 0l464.85828 0l0 323.75854l-464.85828 0l0 -323.75854z" clip-rule="nonzero"/></clipPath><g clip-path="url(#p.0)"><path fill="#000000" fill-opacity="0.0" d="m0 0l464.85828 0l0 323.75854l-464.85828 0z" fill-rule="evenodd"/><path fill="#434343" d="m11.5958 61.528557l0 0c0 -27.577099 22.355658 -49.932755 49.932755 -49.932755l344.70142 0c13.242981 0 25.943573 5.2607574 35.30777 14.624966c9.364227 9.36421 14.6249695 22.064802 14.6249695 35.307793l0 199.72504c0 27.577087 -22.355652 49.93274 -49.93274 49.93274l-344.70142 0c-27.577099 0 -49.932755 -22.355652 -49.932755 -49.93274z" fill-rule="evenodd"/><path stroke="#000000" stroke-width="1.0" stroke-linejoin="round" stroke-linecap="butt" d="m11.5958 61.528557l0 0c0 -27.577099 22.355658 -49.932755 49.932755 -49.932755l344.70142 0c13.242981 0 25.943573 5.2607574 35.30777 14.624966c9.364227 9.36421 14.6249695 22.064802 14.6249695 35.307793l0 199.72504c0 27.577087 -22.355652 49.93274 -49.93274 49.93274l-344.70142 0c-27.577099 0 -49.932755 -22.355652 -49.932755 -49.93274z" fill-rule="evenodd"/><path fill="#000000" fill-opacity="0.0" d="m62.335957 41.548557l343.0866 0l0 239.68503l-343.0866 0z" fill-rule="evenodd"/><path fill="#f9cb9c" d="m120.08596 76.738556q-0.0625 -0.5 -0.21875 -0.90625q-0.15625 -0.40625 -0.34375 -0.90625q-0.3125 -0.75 -0.5625 -1.625q-0.25 -0.875 -0.25 -2.0625q0.125 -0.625 0.3125 -0.90625q0.1875 -0.28125 0.375 -0.46875l0.25 -1.125l0.9375 0q0.5 0.0625 1.03125 0.0625q0.53125 0 1.03125 0q2.375 0 4.875 -0.1875q2.4999924 -0.1875 5.1249924 -0.4375q2.875 -0.375 6.1875 -0.5625q0.3125 -0.6875 0.40625 -0.875q0.09375 -0.1875 0.21875 -0.4375l0.6875 -0.375q1.4375 -0.0625 2.0 0.34375q0.5625 0.40625 0.875 0.78125q1.625 -0.125 3.3125 -0.34375q1.6875 -0.21875 3.5 -0.46875q2.5 -0.3125 5.0625 -0.625q2.5625 -0.3125 5.0 -0.3125q1.0625 0 2.0 0.0625q0.9375 0.0625 1.8125 0.1875l0.75 0.5625q0.25 0.4375 0.625 0.8125q0.375 0.375 0.875 0.75q0.9375 0.75 1.84375 1.875q0.90625 1.125 0.65625 3.3125l-0.3125 0.625q-0.25 0.25 -0.625 0.5l-0.625 0.8125l-0.6875 0q-0.625 0 -0.9375 0.09375q-0.3125 0.09375 -0.75 0.28125q-0.25 0.125 -0.5625 0.21875q-0.3125 0.09375 -0.6875 0.21875q-0.6875 -0.0625 -1.0625 -0.0625q-0.375 0 -0.875 0q-1.875 0 -4.0625 0.25q-2.1875 0.25 -4.25 0.5625q-1.5 0.1875 -2.875 0.34375q-1.375 0.15625 -2.5 0.28125q-0.625 1.625 -1.125 2.875q-0.5 1.25 -1.0625 2.5q-0.5625 1.25 -1.0625 2.53125q-0.5 1.28125 -0.9375 2.84375q-0.75 1.125 -1.25 2.15625q-0.5 1.03125 -0.8125 2.34375q-0.9375 1.0625 -1.34375 2.3125q-0.40625 1.25 -0.71875 2.125l-0.25 0.9375q-0.4375 0.4375 -0.53125 0.6875q-0.09375 0.25 -0.34375 0.5625q-0.1875 0.8125 -0.5 1.5625q-0.125 0.3125 -0.25 0.65625q-0.125 0.34375 -0.0625 0.53125q-0.125 0.6875 -0.375 1.0625q0 0.375 -0.0625 0.75q-0.0625 0.375 -0.125 0.75q-0.125 0.4375 -0.1875 0.78125q-0.0625 0.34375 0.0625 0.65625q0.1875 0.25 0.375 0.5q0.1875 0.25 0.3125 0.625q0.125 0.125 0.3125 0.1875q0.1875 0.0625 0.3125 0.1875q0.5 0.4375 0.9375 0.5l0.625 0.75q0.375 2.25 -0.6875 3.5q-1.125 1.4375 -3.75 1.4375l-0.875 -0.0625q-0.4375 -0.4375 -0.5 -0.5625q-0.5625 -0.25 -0.9375 -0.40625q-0.375 -0.15625 -0.6875 -0.59375q-0.125 -0.125 -0.3125 -0.15625q-0.1875 -0.03125 -0.3125 -0.15625q-0.625 -0.1875 -1.0 -0.4375l-0.6875 -0.375q0.0625 -0.625 0.0625 -0.875q-0.5 -0.6875 -0.78125 -1.5q-0.28125 -0.8125 -0.46875 -1.6875q-0.1875 -0.6875 -0.34375 -1.25q-0.15625 -0.5625 -0.46874237 -1.0q-0.125 -4.375 0.8124924 -7.34375q0.9375 -2.96875 2.0625 -5.78125q0.625 -1.5 1.1875 -3.0625q0.5625 -1.5625 1.0 -3.1875l0.6875 -0.6875q0.4375 -0.375 0.5625 -0.4375q0 -0.8125 0.3125 -1.59375q0.3125 -0.78125 0.6875 -1.59375q0.25 -0.5 0.46875 -1.0q0.21875 -0.5 0.28125 -0.875q-0.4375 0 -0.78125 0.03125q-0.34375 0.03125 -0.71875 0.09375q-0.8125 0.1875 -1.5625 0.1875q-0.5625 0 -0.8125 -0.0625q-0.5 0.25 -0.9375 0.28125q-0.4375 0.03125 -0.875 0.03125l-0.75 0l-0.75 0q-0.7499924 0 -1.1874924 0.1875q-0.875 0 -1.125 0q-0.25 0 -0.5625 0l-0.75 0l-0.75 0q-0.5 0 -1.125 -0.09375q-0.625 -0.09375 -1.3125 -0.46875l-0.4375 -0.5q-0.375 -0.6875 -0.6875 -0.75l-0.6875 -0.1875l0 -0.6875zm69.49999 29.1875q0.125 1.625 -0.375 2.6875q-0.5 1.0625 -1.375 1.8125q-0.875 0.75 -2.0 1.1875q-1.125 0.4375 -2.1875 0.8125q-0.5 -0.3125 -0.96875 -0.65625q-0.46875 -0.34375 -1.09375 -0.53125q-0.8125 -1.5 -1.5625 -2.65625q-0.75 -1.15625 -0.6875 -2.65625q0 -0.0625 0.09375 -0.6875q0.09375 -0.625 0.25 -1.375q0.15625 -0.75 0.25 -1.40625q0.09375 -0.65625 0.09375 -0.71875q-1.4375 0.125 -3.0 0.625q-1.5625 0.5 -3.03125 1.1875q-1.46875 0.6875 -2.75 1.375q-1.28125 0.6875 -2.09375 1.1875q0 0.1875 -0.25 0.90625q-0.25 0.71875 -0.625 1.5q-0.375 0.78125 -0.8125 1.40625q-0.4375 0.625 -0.875 0.625q0.0625 0.1875 0.1875 0.375q0.125 0.1875 0 0.5q-0.875 0.25 -1.5625 0.65625q-0.6875 0.40625 -1.4375 0.6875q-0.75 0.28125 -1.625 0.28125q-0.875 0 -2.0625 -0.625q0 -0.375 -0.3125 -0.65625q-0.3125 -0.28125 -0.65625 -0.5q-0.34375 -0.21875 -0.59375 -0.375q-0.25 -0.15625 -0.25 -0.28125q-0.3125 0.0625 -0.25 -0.4375q0.0625 -0.5 0.5 -0.25q-0.6875 -0.875 -0.84375 -1.53125q-0.15625 -0.65625 -0.71875 -1.65625q0.125 -0.125 0.21875 -0.4375q0.09375 -0.3125 0.15625 -0.5625q0.0625 -0.25 0.1875 -0.375q0.125 -0.125 0.3125 0.0625q-0.125 -0.5625 0 -0.9375q0.125 -0.375 0.25 -0.6875q0.125 -0.3125 0.1875 -0.625q0.0625 -0.3125 -0.1875 -0.6875q1.0 -1.375 1.3125 -2.96875q0.3125 -1.59375 0.375 -2.90625q0.4375 -0.4375 0.78125 -1.25q0.34375 -0.8125 0.53125 -1.65625q0.1875 -0.84375 0.15625 -1.625q-0.03125 -0.78125 -0.21875 -1.28125q0.0625 -0.3125 0.6875 -0.1875q0.375 -2.0625 0.53125 -4.65625q0.15625 -2.59375 0.53125 -4.9375q0.375 -2.34375 1.25 -4.125q0.875 -1.78125 2.8125 -2.34375q0.375 1.3125 0.96875 2.3125q0.59375 1.0 1.3125 1.90625q0.71875 0.90625 1.4375 1.84375q0.71875 0.9375 1.34375 2.125q-0.0625 1.1875 -0.25 2.75q-0.1875 1.5625 -0.46875 3.1875q-0.28125 1.625 -0.5625 3.125q-0.28125 1.5 -0.53125 2.5625q0.0625 0.3125 0.34375 0.375q0.28125 0.0625 0.09375 0.5625q1.5 -0.375 3.125 -0.6875q1.625 -0.3125 3.25 -0.6875q1.625 -0.375 3.15625 -0.84375q1.53125 -0.46875 2.84375 -1.15625q0.3125 -2.4375 0.8125 -4.875q0.5 -2.4375 0.125 -5.0q0.3125 -0.25 0.5 -0.625q0.1875 -0.375 0.625 -0.5q-0.3125 -1.1875 -0.25 -2.5q0.0625 -1.3125 0.46875 -2.5q0.40625 -1.1875 1.1875 -2.03125q0.78125 -0.84375 1.90625 -1.09375q0.6875 1.0 1.1875 2.15625q0.5 1.15625 1.03125 2.3125q0.53125 1.15625 1.125 2.1875q0.59375 1.03125 1.53125 1.78125q0.1875 1.8125 0.28125 3.75q0.09375 1.9375 0.15625 3.9375q-0.5 2.375 -1.09375 4.59375q-0.59375 2.21875 -0.84375 4.71875q-0.4375 0.5 -0.6875 1.125q-0.25 0.625 -0.5 1.28125q-0.25 0.65625 -0.5625 1.25q-0.3125 0.59375 -0.75 1.03125q0.25 0.75 0.09375 1.40625q-0.15625 0.65625 0.34375 1.59375zm40.125 -29.125q0.0625 0.4375 0.03125 0.65625q-0.03125 0.21875 -0.0625 0.40625q-0.03125 0.1875 -0.03125 0.40625q0 0.21875 0.125 0.65625q-1.3125 2.125 -3.03125 2.90625q-1.71875 0.78125 -3.71875 1.125q-2.0 0.34375 -4.09375 0.71875q-2.09375 0.375 -4.15625 1.625q-0.8125 -0.3125 -1.46875 0q-0.65625 0.3125 -1.90625 0.1875q-0.375 0.375 -0.9375 0.53125q-0.5625 0.15625 -1.125 0.34375q0.25 0.5625 0.21875 1.15625q-0.03125 0.59375 0.15625 0.96875q2.1875 0.1875 4.84375 -0.0625q2.65625 -0.25 5.21875 -0.3125q0.0625 0.3125 -0.0625 0.40625q-0.125 0.09375 -0.0625 0.34375q0.4375 0.3125 0.875 0.78125q0.4375 0.46875 0.875 0.90625q0.4375 0.4375 0.90625 0.71875q0.46875 0.28125 1.09375 0.21875q0.25 0.5 0.34375 1.09375q0.09375 0.59375 -0.15625 1.21875q-1.0 0.6875 -2.0 1.40625q-1.0 0.71875 -2.09375 1.28125q-1.09375 0.5625 -2.3125 0.90625q-1.21875 0.34375 -2.71875 0.28125q-0.3125 0 -0.46875 0q-0.15625 0 -0.40625 -0.1875q-0.5 0.3125 -1.40625 0.1875q-0.90625 -0.125 -1.40625 0.1875q-0.6875 -0.3125 -1.65625 -0.28125q-0.96875 0.03125 -1.71875 -0.21875q-1.0 1.3125 -1.8125 2.8125q-0.8125 1.5 -1.4375 3.1875q2.125 0.3125 3.53125 0.25q1.40625 -0.0625 2.65625 -0.21875q1.25 -0.15625 2.5625 -0.3125q1.3125 -0.15625 3.3125 -0.09375q1.25 -0.6875 2.96875 -0.90625q1.71875 -0.21875 3.15625 -0.71875q0.5 0.1875 0.875 0.65625q0.375 0.46875 0.71875 0.875q0.34375 0.40625 0.71875 0.71875q0.375 0.3125 0.9375 0.25q0.25 0.25 0.34375 0.59375q0.09375 0.34375 0.15625 0.65625q0.0625 0.3125 0.21875 0.53125q0.15625 0.21875 0.53125 0.15625q-0.9375 2.0625 -2.15625 3.15625q-1.21875 1.09375 -2.78125 1.65625q-1.5625 0.5625 -3.46875 0.875q-1.90625 0.3125 -4.21875 0.75q-0.5625 0.125 -0.9375 -0.03125q-0.375 -0.15625 -0.875 -0.15625q-1.4375 0.3125 -3.4375 0.5625q-2.0 0.25 -4.0625 0.1875q-2.0625 -0.0625 -3.9375 -0.53125q-1.875 -0.46875 -3.0625 -1.65625q-0.5 -0.4375 -0.65625 -1.03125q-0.15625 -0.59375 -0.84375 -0.90625q-0.0625 -0.8125 -0.25 -1.8125q-0.1875 -1.0 -0.375 -2.09375q-0.1875 -1.09375 -0.28125 -2.15625q-0.09375 -1.0625 0.09375 -1.9375q0.1875 -0.9375 0.78125 -1.6875q0.59375 -0.75 0.40625 -1.625q0.3125 -0.0625 0.375 -0.34375q0.0625 -0.28125 0.5 -0.21875q0.375 -1.125 0.8125 -2.125q0.4375 -1.0 0.90625 -1.9375q0.46875 -0.9375 0.9375 -1.90625q0.46875 -0.96875 0.90625 -2.15625q-0.875 -0.8125 -1.28125 -1.78125q-0.40625 -0.96875 -0.59375 -1.9375q-0.1875 -0.96875 -0.3125 -2.0q-0.125 -1.03125 -0.4375 -2.09375q0.625 -0.9375 1.53125 -1.53125q0.90625 -0.59375 1.96875 -0.96875q1.0625 -0.375 2.3125 -0.625q1.25 -0.25 2.625 -0.5625q2.5 -0.8125 4.46875 -1.25q1.96875 -0.4375 3.875 -0.71875q1.90625 -0.28125 3.96875 -0.53125q2.0625 -0.25 4.6875 -0.75q0.5625 0.5625 1.0625 0.5625q0.25 -0.5625 0.59375 -0.34375q0.34375 0.21875 0.28125 -0.34375q0.625 1.0625 1.59375 1.78125q0.96875 0.71875 2.15625 1.21875zm34.937515 16.4375q-0.0625 0.75 0.125 1.4375q0.1875 0.6875 0.46875 1.34375q0.28125 0.65625 0.53125 1.34375q0.25 0.6875 0.375 1.375q0.125 0.875 0 1.90625q-0.125 1.03125 -0.4375 2.0q-0.3125 0.96875 -0.8125 1.75q-0.5 0.78125 -1.1875 1.15625q-0.875 1.125 -2.125 1.75q-1.25 0.625 -2.3125 1.5q-0.6875 0.4375 -1.53125 0.625q-0.84375 0.1875 -1.71875 0.375q-0.68751526 0.375 -1.6250153 0.78125q-0.9375 0.40625 -1.9375 0.75q-1.0 0.34375 -2.0 0.5q-1.0 0.15625 -1.75 0.09375q-1.875 0.6875 -3.65625 0.90625q-1.78125 0.21875 -4.15625 -0.28125q-2.25 0.3125 -4.15625 -0.1875q-1.90625 -0.5 -3.375 -1.59375q-1.46875 -1.09375 -2.5625 -2.625q-1.09375 -1.53125 -1.78125 -3.21875q-0.5 -3.5625 0.25 -6.46875q0.75 -2.90625 2.15625 -5.375q1.40625 -2.46875 3.21875 -4.5625q1.8125 -2.09375 3.5 -4.09375q0.375 0.125 0.59375 -0.03125q0.21875 -0.15625 0.40625 -0.4375q0.1875 -0.28125 0.40625 -0.53125q0.21875 -0.25 0.53125 -0.3125q0.4375 -0.9375 1.28125 -1.40625q0.84375 -0.46875 1.34375 -1.34375q0.5625 -0.125 0.9375 -0.375q0.375 -0.25 0.71875 -0.5625q0.34375 -0.3125 0.71875 -0.59375q0.375 -0.28125 0.875 -0.40625l0 -0.6875q1.125 -0.5 1.65625 -1.15625q0.53125 -0.65625 1.28125 -1.59375q0.5625 -0.0625 0.90625 -0.0625q0.34375 0 1.03125 -0.125q0.5 -0.875 0.90625 -1.3125q0.40625 -0.4375 1.21875 -0.9375q0.75 0.375 1.65625 0.5q0.90625 0.125 1.5937653 0.8125q0.0625 0.625 0.375 0.96875q0.3125 0.34375 0.6875 0.625q0.375 0.28125 0.71875 0.59375q0.34375 0.3125 0.46875 0.875q0.25 0.0625 0.34375 -0.0625q0.09375 -0.125 0.34375 -0.0625q0.1875 0.875 0.4375 1.15625q0.25 0.28125 0.5 1.09375q-0.3125 0.625 -0.46875 1.28125q-0.15625 0.65625 -0.78125 0.96875q-0.0625 0.4375 0.25 0.46875q0.3125 0.03125 0.375 0.34375q0.0625 0.5625 -0.1875 0.8125q1.5 2.4375 2.6875 5.15625q1.1875 2.71875 2.6875 5.15625zm-7.8125 5.9375q0.25 -0.6875 0.65625 -1.125q0.40625 -0.4375 0.46875 -1.3125q-0.3125 -0.5 -0.375 -0.78125q-0.0625 -0.28125 -0.0625 -0.90625q-1.375 -1.9375 -2.3750153 -4.15625q-1.0 -2.21875 -2.25 -4.15625q-0.125 0.25 -0.4375 0.5q-0.3125 0.25 -0.6875 -0.125q-0.125 0.5 -0.4375 0.71875q-0.3125 0.21875 -0.6875 0.1875q-0.375 -0.03125 -0.78125 -0.1875q-0.40625 -0.15625 -0.71875 -0.40625q-1.8125 1.4375 -3.625 2.8125q-1.8125 1.375 -3.25 3.1875q-0.25 0.125 -0.3125 0.09375q-0.0625 -0.03125 -0.375 0.09375q-0.5 1.1875 -1.21875 2.15625q-0.71875 0.96875 -1.40625 1.96875q-0.6875 1.0 -1.1875 2.125q-0.5 1.125 -0.5625 2.625q1.0625 0.875 2.5 1.0625q1.4375 0.1875 2.96875 0.0625q1.53125 -0.125 3.0 -0.40625q1.46875 -0.28125 2.71875 -0.28125q2.625 -0.625 4.5 -1.65625q1.875 -1.03125 3.9375153 -2.09375zm21.6875 6.3125q-0.6875 2.5 -1.21875 3.78125q-0.53125 1.28125 -1.59375 2.65625q-0.8125 -0.125 -1.125 0.1875q-0.3125 0.3125 -0.6875 0.5625q-0.5625 0.125 -0.8125 0q-0.25 -0.125 -0.4375 -0.28125q-0.1875 -0.15625 -0.46875 -0.3125q-0.28125 -0.15625 -0.84375 -0.15625q-0.125 -0.5 -0.28125 -0.9375q-0.15625 -0.4375 -0.84375 -0.3125q0.125 -0.5 0.0625 -0.84375q-0.0625 -0.34375 -0.15625 -0.625q-0.09375 -0.28125 -0.15625 -0.5625q-0.0625 -0.28125 0.0625 -0.71875q-0.3125 0 -0.5 -0.4375q-0.1875 -0.4375 -0.4375 -0.875q0.1875 -1.125 0.375 -2.125q0.1875 -1.0 0.46875 -1.875q0.28125 -0.875 0.46875 -1.75q0.1875 -0.875 -0.1875 -1.8125q0.25 0.1875 0.375 -0.09375q0.125 -0.28125 0.1875 -0.75q0.0625 -0.46875 0.0625 -0.9375q0 -0.46875 -0.0625 -0.78125q0.625 -1.625 1.03125 -3.34375q0.40625 -1.71875 0.75 -3.40625q0.34375 -1.6875 0.71875 -3.3125q0.375 -1.625 1.0 -3.0q0.6875 -0.125 1.53125 0.15625q0.84375 0.28125 1.03125 0.71875q1.625 -1.25 2.875 -3.03125q1.25 -1.78125 2.5625 -3.46875q1.3125 -1.6875 2.90625 -3.0q1.59375 -1.3125 4.03125 -1.5625q1.25 0.9375 2.78125 1.90625q1.53125 0.96875 2.53125 2.53125q0.5 0.25 0.84375 0.53125q0.34375 0.28125 0.84375 0.59375l0 0.75q0.75 0.6875 1.21875 1.59375q0.46875 0.90625 0.84375 1.9375q0.375 1.03125 0.75 2.0625q0.375 1.03125 0.875 1.96875q-0.125 0.3125 -0.125 0.53125q0 0.21875 0.09375 0.46875q0.09375 0.25 0.15625 0.5q0.0625 0.25 0 0.6875q-0.1875 2.75 -1.78125 4.4375q-1.59375 1.6875 -3.84375 2.78125q-2.25 1.09375 -4.8125 1.84375q-2.5625 0.75 -4.625 1.625q0 0.25 0.21875 0.25q0.21875 0 0.15625 0.3125q1.5 0.9375 2.375 1.5q0.875 0.5625 1.65625 0.9375q0.78125 0.375 1.6875 0.65625q0.90625 0.28125 2.53125 0.65625q1.625 0.375 2.53125 0.59375q0.90625 0.21875 1.65625 0.375q0.75 0.15625 1.53125 0.25q0.78125 0.09375 2.21875 0.21875q0.5625 0.5625 0.96875 1.34375q0.40625 0.78125 0.53125 1.5625q0.125 0.78125 0.0625 1.5q-0.0625 0.71875 -0.4375 1.15625q0.0625 0.1875 0.28125 0.15625q0.21875 -0.03125 0.46875 0.03125q-0.375 0.25 -0.625 0.625q-0.25 0.375 -0.5 0.75q-0.25 0.375 -0.5625 0.65625q-0.3125 0.28125 -0.875 0.34375q-1.9375 0.75 -4.875 0.09375q-2.9375 -0.65625 -7.4375 -2.40625q-2.25 -0.875 -3.65625 -1.53125q-1.40625 -0.65625 -2.4375 -1.3125q-1.03125 -0.65625 -1.875 -1.40625q-0.84375 -0.75 -2.03125 -1.8125zm8.9375 -21.4375q-0.6875 1.0 -1.53125 1.8125q-0.84375 0.8125 -1.625 1.65625q-0.78125 0.84375 -1.40625 1.875q-0.625 1.03125 -0.875 2.40625q2.1875 -0.25 4.5625 -1.21875q2.375 -0.96875 4.5 -1.84375q-0.25 -1.9375 -1.34375 -3.125q-1.09375 -1.1875 -2.28125 -1.5625zm35.625 11.5625q-0.4375 0.375 -0.75 0.90625q-0.3125 0.53125 -0.625 1.09375q-0.3125 0.6875 -0.6875 1.3125q-0.375 0.625 -0.9375 1.125q-0.3125 0.9375 -0.625 1.46875q-0.3125 0.53125 -1.0 1.21875q-0.625 2.5 -2.9375 5.4375q-0.0625 0.5625 -0.34375 1.09375q-0.28125 0.53125 -0.59375 1.03125q-0.125 0.1875 -0.25 0.40625q-0.125 0.21875 -0.1875 0.34375l-0.125 0.625q-0.3125 0.5 -0.6875 0.875q-0.375 0.375 -0.6875 0.6875q-0.125 0.1875 -0.4375 0.5l-0.9375 0.375q-4.5625 -0.625 -5.5625 -4.875l0.0625 -0.625q0.125 -0.3125 0.21875 -0.65625q0.09375 -0.34375 0.21875 -0.71875q0.25 -0.875 0.59375 -1.75q0.34375 -0.875 1.03125 -1.5625q0.125 -0.4375 0.5625 -1.40625q0.4375 -0.96875 1.5 -2.90625q0.875 -1.5 1.375 -2.375q0.5 -0.875 0.8125 -1.375q-0.625 -1.0 -1.5 -1.8125q-0.8125 -1.5625 -1.40625 -3.0q-0.59375 -1.4375 -0.90625 -2.5625q-0.0625 -0.8125 -0.1875 -1.375q-0.125 -0.5625 -0.25 -1.1875q-0.1875 -0.6875 -0.3125 -1.375q-0.125 -0.6875 -0.125 -1.4375q-0.3125 -0.4375 -0.375 -0.875l0.125 -0.625q0.1875 -0.4375 0.0625 -1.15625q-0.125 -0.71875 -0.3125 -1.46875q-0.125 -0.625 -0.28125 -1.375q-0.15625 -0.75 -0.09375 -1.5q0.0625 -0.75 0.40625 -1.40625q0.34375 -0.65625 1.15625 -1.15625l1.0625 -0.0625q0.5625 0.3125 1.09375 0.59375q0.53125 0.28125 1.03125 0.59375q0.6875 0.3125 1.3125 0.625q0.625 0.3125 1.3125 0.8125l0.4375 0.875l0.8125 0.6875l0 0.6875q0.0625 0.25 0.0625 0.6875q0 0.8125 0.25 1.0l0.25 0.75q0 0.875 0.1875 1.65625q0.1875 0.78125 0.375 1.46875q0.1875 0.6875 0.375 1.4375q0.1875 0.75 0.0625 1.625q0.375 -0.1875 0.625 -0.4375q0.125 -0.125 0.25 -0.1875q0.125 -0.0625 0.25 -0.1875l3.6875 -5.0l-0.125 -0.625l1.3125 -1.25q0.5 -0.5 0.96875 -0.9375q0.46875 -0.4375 0.78125 -0.9375l0.6875 -0.5q2.0 -3.125 5.6875 -3.875l0.875 -0.125l0.25 0.8125q0.25 0.6875 1.03125 1.25q0.78125 0.5625 1.65625 1.0625l0.5625 0.375q0.3125 0.625 0.3125 0.9375q0 0.3125 -0.0625 0.5625l0.25 0.625q-0.5 1.5 -1.21875 2.1875q-0.71875 0.6875 -1.40625 1.25q-0.5625 0.5 -1.03125 0.90625q-0.46875 0.40625 -0.71875 1.03125l-0.4375 0.5q-1.3125 0.75 -1.6875 2.0l-0.1875 0.75l-0.75 0q-0.0625 0 -0.28125 0.21875q-0.21875 0.21875 -0.65625 1.09375q-0.4375 0.625 -0.625 0.8125q-0.1875 0.1875 -0.3125 0.3125q-0.0625 0.25 -0.15625 0.46875q-0.09375 0.21875 -0.21875 0.53125q-0.8125 0.8125 -1.0 1.21875q-0.1875 0.40625 -0.4375 0.90625q-0.25 0.5 -0.46875 0.96875q-0.21875 0.46875 -0.71875 0.96875l-0.3125 0.9375z" fill-rule="nonzero"/><path fill="#f9cb9c" d="m221.64845 170.36356q0.9375 0.125 1.34375 0.4375q0.40625 0.3125 0.53125 0.78125q0.125 0.46875 0.09375 1.03125q-0.03125 0.5625 -0.03125 1.125q-0.9375 0.625 -2.34375 1.03125q-1.40625 0.40625 -3.09375 0.625q-1.6875 0.21875 -3.53125 0.3125q-1.84375 0.09375 -3.65625 0.15625q-0.3125 1.75 -0.75 3.71875q-0.4375 1.96875 -1.4375 4.78125q-0.875 1.9375 -2.0 2.71875q-1.125 0.78125 -2.34375 0.78125q-1.21875 0 -2.46875 -0.59375q-1.25 -0.59375 -2.375 -1.34375q-0.125 -0.8125 -0.0625 -1.9375q0.0625 -1.125 0.1875 -2.40625q0.125 -1.28125 0.34375 -2.5625q0.21875 -1.28125 0.40625 -2.53125q-2.0 0.3125 -3.21875 0.5625q-1.21875 0.25 -1.71875 0.4375q-1.1875 -0.0625 -1.875 -0.4375q-0.6875 -0.375 -1.125 -0.90625q-0.4375 -0.53125 -0.75 -1.21875q-0.3125 -0.6875 -0.75 -1.4375q0.25 -0.5 0.09375 -1.4375q-0.15625 -0.9375 -0.71875 -1.4375q0.5 -0.0625 0.75 -0.71875q0.25 -0.65625 0 -0.96875q1.0 -0.25 2.15625 -0.34375q1.15625 -0.09375 2.28125 -0.15625q1.125 -0.0625 2.125 -0.21875q1.0 -0.15625 1.75 -0.53125q0.875 0 1.65625 -0.03125q0.78125 -0.03125 1.65625 -0.03125q0.1875 -0.8125 -0.0625 -1.375q-0.25 -0.5625 -0.125 -1.0q0.125 -0.3125 0.46875 -0.40625q0.34375 -0.09375 0.40625 -0.40625q0.25 -0.8125 0.125 -1.28125q-0.125 -0.46875 0.25 -1.21875q0.3125 -0.5 0.84375 -1.5625q0.53125 -1.0625 0.40625 -2.25q0.625 -0.4375 1.15625 -1.0q0.53125 -0.5625 1.125 -1.03125q0.59375 -0.46875 1.3125 -0.8125q0.71875 -0.34375 1.78125 -0.34375q0.5625 0.6875 0.8125 1.3125q0.25 0.625 0.5 1.1875q0.25 0.5625 0.65625 1.0625q0.40625 0.5 1.21875 0.9375q0 0.5625 -0.1875 1.375q-0.1875 0.8125 -0.3125 1.625q-0.125 0.8125 -0.0625 1.4375q0.0625 0.625 0.625 0.875q-0.25 0.6875 -0.46875 1.34375q-0.21875 0.65625 -0.40625 1.28125q1.0625 0.1875 2.4375 0.21875q1.375 0.03125 2.625 0.25q1.25 0.21875 2.28125 0.75q1.03125 0.53125 1.46875 1.78125z" fill-rule="nonzero"/><path fill="#f9cb9c" d="m74.14846 248.36356q0.0625 -0.25 0.28125 -0.21875q0.21875 0.03125 0.40625 -0.03125q-0.5 -0.5 -0.625 -1.34375q-0.125 -0.84375 -0.625 -1.40625q0.125 -0.3125 0.21875 -0.625q0.09375 -0.3125 0.53125 -0.25q-0.1875 -1.375 0.0625 -2.5625q0.25 -1.1875 0.78125 -2.25q0.53125 -1.0625 1.25 -2.09375q0.71875 -1.03125 1.40625 -2.09375q0.5625 -0.125 0.6875 0.09375q0.125 0.21875 0.4375 -0.09375q1.0 -0.6875 1.375 -1.53125q0.375 -0.84375 0.375 -1.84375q0.5625 -1.625 1.28125 -3.21875q0.71875 -1.59375 1.65625 -2.96875q0.9375 -1.375 2.0 -2.40625q1.0625 -1.03125 2.3125 -1.59375q0.875 -0.75 2.21875 -1.375q1.34375 -0.625 2.875 -0.96875q1.53125 -0.34375 3.15625 -0.375q1.625 -0.03125 3.0 0.34375q0.3125 0.125 0.375 -0.15625q0.0625 -0.28125 0.3125 -0.28125q3.125 0.375 5.59375 1.25q2.46875 0.875 4.21875 2.4375q1.1875 1.875 2.25 4.03125q1.0625 2.15625 1.65625 4.5q0.59375 2.34375 0.53125 4.84375q-0.0625 2.5 -1.0625 5.0q-2.1875 2.75 -5.3125 4.40625q-3.125 1.65625 -6.71875 2.75q-3.59375 1.09375 -7.4375 1.78125q-3.84375 0.6875 -7.46875 1.5q0.0625 1.6875 0 3.59375q-0.0625 1.90625 -0.40625 3.8125q-0.34375 1.90625 -1.0 3.71875q-0.65625 1.8125 -1.78125 3.375q-1.25 -0.0625 -2.59375 0.25q-1.34375 0.3125 -2.40625 0.625q-0.5 -0.3125 -0.96875 -0.59375q-0.46875 -0.28125 -1.15625 -0.34375q0.1875 -0.75 -0.34375 -1.5625q-0.53125 -0.8125 -1.0625 -1.59375q-0.53125 -0.78125 -0.6875 -1.5625q-0.15625 -0.78125 0.71875 -1.40625q-0.5 -0.4375 -0.5 -1.375q0.25 0.25 0.625 0.25q-0.125 -1.125 0.28125 -2.6875q0.40625 -1.5625 0.6875 -3.09375q0.28125 -1.53125 0.09375 -2.8125q-0.1875 -1.28125 -1.5 -1.84375zm16.25 -14.625q-0.25 0.6875 -0.40625 1.21875q-0.15625 0.53125 -0.34375 0.96875q-0.1875 0.4375 -0.40625 0.875q-0.21875 0.4375 -0.46875 1.0q0.125 0.375 0.5 0.5625q0.375 0.1875 0.5 0.5625q0.875 -0.4375 1.75 -0.65625q0.875 -0.21875 1.75 -0.34375q0.875 -0.125 1.75 -0.3125q0.875 -0.1875 1.8125 -0.625q0.9375 -0.4375 1.96875 -0.71875q1.03125 -0.28125 2.03125 -0.59375q1.0 -0.3125 1.9375 -0.71875q0.9375 -0.40625 1.625 -1.09375q-0.875 -0.8125 -2.625 -1.4375q-1.75 -0.625 -3.78125 -0.78125q-2.03125 -0.15625 -4.0625 0.28125q-2.03125 0.4375 -3.53125 1.8125zm23.625 26.875q-0.3125 0.0625 -0.5625 -0.46875q-0.25 -0.53125 -0.5625 -1.03125l0.6875 0q-0.4375 -1.375 -0.21875 -2.53125q0.21875 -1.15625 0.53125 -2.25q0.3125 -1.09375 0.53125 -2.125q0.21875 -1.03125 -0.21875 -2.15625q0.3125 0.1875 0.46875 -0.15625q0.15625 -0.34375 0.25 -0.875q0.09375 -0.53125 0.0625 -1.125q-0.03125 -0.59375 -0.09375 -0.96875q0.8125 -1.9375 1.28125 -4.0q0.46875 -2.0625 0.84375 -4.09375q0.375 -2.03125 0.84375 -3.9375q0.46875 -1.90625 1.21875 -3.59375q0.875 -0.125 1.84375 0.21875q0.96875 0.34375 1.28125 0.84375q1.9375 -1.5 3.4375 -3.625q1.5 -2.125 3.0312424 -4.15625q1.53125 -2.03125 3.46875 -3.59375q1.9375 -1.5625 4.8125 -1.875q1.5 1.0625 3.375 2.28125q1.875 1.21875 3.0625 3.03125q0.5 0.3125 0.96875 0.65625q0.46875 0.34375 0.96875 0.65625l0 0.9375q0.875 0.8125 1.46875 1.90625q0.59375 1.09375 1.0625 2.3125q0.46875 1.21875 0.90625 2.46875q0.4375 1.25 1.0 2.3125q-0.125 0.375 -0.09375 0.65625q0.03125 0.28125 0.125 0.5625q0.09375 0.28125 0.15625 0.625q0.0625 0.34375 0.0625 0.84375q-0.25 3.3125 -2.15625 5.34375q-1.90625 2.03125 -4.625 3.3125q-2.71875 1.28125 -5.78125 2.1875q-3.0625 0.90625 -5.5625 1.96875q0 0.25 0.28125 0.25q0.28125 0 0.15625 0.375q1.875 1.125 2.90625 1.8125q1.03125 0.6875 1.9375 1.15625q0.90625 0.46875 2.0 0.78125q1.09375 0.3125 3.03125 0.75q1.9375 0.4375 3.03125 0.71875q1.09375 0.28125 1.96875 0.4375q0.875 0.15625 1.875 0.28125q1.0 0.125 2.6875 0.3125q0.6875 0.6875 1.125 1.625q0.4375 0.9375 0.625 1.875q0.1875 0.9375 0.09375 1.78125q-0.09375 0.84375 -0.53125 1.34375q0.0625 0.25 0.34375 0.21875q0.28125 -0.03125 0.59375 0.03125q-0.4375 0.3125 -0.75 0.75q-0.3125 0.4375 -0.625 0.875q-0.3125 0.4375 -0.71875 0.8125q-0.40625 0.375 -1.03125 0.4375q-2.25 0.875 -5.75 0.0625q-3.5 -0.8125 -8.9375 -2.875q-2.6875 -1.0 -4.375 -1.8125q-1.6875 -0.8125 -2.9375 -1.59375q-1.2499924 -0.78125 -2.3124924 -1.6875q-1.0625 -0.90625 -2.4375 -2.15625q-0.1875 0.0625 -0.21875 0.25q-0.03125 0.1875 -0.21875 0.25q-0.3125 2.5 -0.96875 4.0625q-0.65625 1.5625 -1.90625 3.1875q-1.0 -0.1875 -1.34375 0.1875q-0.34375 0.375 -0.84375 0.6875q-0.625 0.125 -0.9375 -0.03125q-0.3125 -0.15625 -0.5625 -0.34375q-0.25 -0.1875 -0.5625 -0.375q-0.3125 -0.1875 -1.0 -0.125q-0.1875 -0.5625 -0.375 -1.09375q-0.1875 -0.53125 -1.0 -0.46875q0.1875 -0.5625 0.125 -0.96875q-0.0625 -0.40625 -0.1875 -0.75q-0.125 -0.34375 -0.21875 -0.71875q-0.09375 -0.375 0.09375 -0.875zm20.874992 -28.5625q-0.8125 1.1875 -1.8125 2.15625q-1.0 0.96875 -1.96875 2.0q-0.96875 1.03125 -1.71875 2.25q-0.75 1.21875 -1.0625 2.90625q2.625 -0.3125 5.5 -1.46875q2.875 -1.15625 5.4375 -2.21875q-0.3125 -2.3125 -1.625 -3.71875q-1.3125 -1.40625 -2.75 -1.90625zm17.125 28.0l0.8125 -0.625l0.0625 -1.3125q1.5625 -3.8125 3.21875 -7.3125q1.65625 -3.5 3.46875 -7.1875q0.5625 -1.1875 1.15625 -2.375q0.59375 -1.1875 1.15625 -2.4375q-0.0625 -0.25 -0.0625 -0.53125q0 -0.28125 0.125 -0.65625q0.875 -1.25 1.40625 -2.25q0.53125 -1.0 1.03125 -2.0625q0.5625 -1.25 1.21875 -2.5q0.65625 -1.25 1.65625 -2.4375l0.4375 -0.625l0.6875 0.0625q0.25 -0.125 0.53125 -0.21875q0.28125 -0.09375 0.71875 -0.09375l1.125 0.1875q2.0625 -0.9375 3.65625 -2.71875q1.59375 -1.78125 3.21875 -4.28125l0.75 -1.0625l1.0 0.625q0.3125 0.1875 1.0 0.375q0.6875 0.1875 1.4375 0.4375q1.3125 0.3125 2.5625 0.71875q1.25 0.40625 1.9375 1.09375l0.3125 0.5625q0.125 0.6875 0.21875 1.25q0.09375 0.5625 0.21875 1.125q0.25 1.3125 0.4375 2.59375q0.1875 1.28125 0.25 2.84375q0.3125 1.25 0.59375 2.53125q0.28125 1.28125 0.53125 2.53125q0.3125 1.8125 0.6875 3.46875q0.375 1.65625 1.0 3.15625q0.625 0 0.75 0.0625q0.75 -0.3125 1.75 -0.375l0.8125 -0.0625l0.25 0.75q0.125 0.1875 0.3125 0.375q0.1875 0.1875 0.4375 0.375q1.0 0.0625 1.46875 0.40625q0.46875 0.34375 0.78125 0.65625q0.125 0.125 0.3125 0.28125q0.1875 0.15625 0.3125 0.21875l1.125 0.4375l-0.625 1.1875q-0.6875 1.3125 -2.09375 2.5625q-1.40625 1.25 -3.15625 2.0625q0.125 0.4375 0.15625 0.8125q0.03125 0.375 0.15625 0.875q0.25 1.25 0.40625 2.59375q0.15625 1.34375 -0.03125 2.78125q-0.625 1.625 -1.46875 2.90625q-0.84375 1.28125 -2.0 2.3125q-1.15625 1.03125 -2.59375 1.6875q-1.4375 0.65625 -3.0 0.71875q-0.875 -0.1875 -1.28125 -0.4375q-0.40625 -0.25 -0.71875 -0.5q-0.5 -0.375 -0.8125 -0.5l-0.8125 -0.375l0.25 -0.9375q0.1875 -0.5 -0.03125 -0.875q-0.21875 -0.375 -0.90625 -1.0q-0.25 -0.1875 -0.4375 -0.40625q-0.1875 -0.21875 -0.4375 -0.46875l-1.25 -1.4375l2.0625 -0.5625q1.875 -0.5 2.5 -1.28125q0.625 -0.78125 0.5 -2.78125q-1.5625 -0.3125 -2.5625 -0.09375q-1.0 0.21875 -2.0 0.46875q-1.4375 0.375 -2.8125 0.65625q-1.375 0.28125 -3.0 0.28125q-1.0625 0 -2.25 -0.1875l-0.6875 -0.0625l-0.1875 -0.6875q0 -0.125 -0.15625 -0.28125q-0.15625 -0.15625 -0.28125 -0.28125q-0.3125 -0.375 -0.75 -1.0q-0.4375 -0.625 -0.1875 -1.5625q-0.4375 -0.6875 -0.5 -1.4375q-0.25 0.5 -0.40625 0.96875q-0.15625 0.46875 -0.28125 0.90625l-0.25 0.8125l-0.8125 0.125q-0.125 0.125 -0.21875 0.375q-0.09375 0.25 -0.03125 0.375l0.25 0.6875l-0.625 0.5625q-0.125 0.1875 -0.3125 0.3125q-0.1875 0.125 -0.3125 0.25q-0.125 0.6875 -0.34375 1.3125q-0.21875 0.625 -0.46875 1.25q-0.3125 1.0 -0.59375 1.9375q-0.28125 0.9375 -0.28125 1.875l-0.25 0.8125q-0.3125 0.5 -0.78125 0.75q-0.46875 0.25 -0.90625 0.4375q-0.625 0.25 -0.875 0.5l-0.1875 0.8125l-0.9375 0.125q-0.8125 0.1875 -1.15625 0.25q-0.34375 0.0625 -0.78125 0.0625l-0.8125 -0.0625q-0.75 -0.75 -1.21875 -1.15625q-0.46875 -0.40625 -1.09375 -0.71875l-0.375 -0.5q-0.25 -0.5 -0.3125 -0.90625q-0.0625 -0.40625 -0.1875 -0.84375q-0.125 -0.8125 -0.375 -1.125l-0.9375 -0.9375zm19.9375 -16.25q-0.875 1.25 -1.6875 2.625q0.4375 -0.0625 0.84375 -0.0625q0.40625 0 0.84375 -0.0625q2.1875 -0.125 4.0625 -0.3125q1.875 -0.1875 4.0625 -0.625q-0.5 -2.3125 -1.09375 -4.71875q-0.59375 -2.40625 -1.28125 -4.84375l-0.3125 0.625q-1.5625 1.6875 -3.0 3.625q-1.4375 1.9375 -2.375 3.6875l-0.0625 0.0625zm32.4375 16.75q-1.8125 -1.375 -2.96875 -3.4375q-1.15625 -2.0625 -1.8125 -4.375q-0.65625 -2.3125 -0.875 -4.78125q-0.21875 -2.46875 -0.15625 -4.71875q0.5625 -1.6875 1.375 -3.09375q0.8125 -1.40625 1.8125 -2.6875q1.0 -1.28125 2.09375 -2.4375q1.09375 -1.15625 2.15625 -2.34375q0.375 0 0.6875 0.1875q0.25 -0.6875 0.75 -1.1875q0.5 -0.5 1.0625 -0.90625q0.5625 -0.40625 1.125 -0.8125q0.5625 -0.40625 0.9375 -0.96875q1.5625 -0.375 2.78125 -1.0625q1.21875 -0.6875 2.34375 -1.5q1.125 -0.8125 2.3125 -1.5q1.1875 -0.6875 2.75 -1.0625q0.5625 -0.625 1.40625 -1.0625q0.84375 -0.4375 1.6875 -0.8125q0.84375 -0.375 1.625 -0.8125q0.78125 -0.4375 1.28125 -1.1875q0.375 0.5 1.0625 0.34375q0.6875 -0.15625 1.25 -0.34375q0.375 -0.0625 0.625 0.125q0.25 0.1875 0.46875 0.40625q0.21875 0.21875 0.375 0.28125q0.15625 0.0625 0.34375 -0.375q0.5 0.0625 0.28125 0.4375q-0.21875 0.375 -0.28125 0.5q0.625 -0.125 1.03125 0.21875q0.40625 0.34375 1.28125 0.46875q0.3125 0.3125 0.1875 0.5q-0.125 0.1875 -0.1875 0.625q2.25 0.6875 2.875 2.15625q0.625 1.46875 0.125 3.0625q-0.5 1.59375 -1.84375 2.9375q-1.34375 1.34375 -2.96875 1.78125q-1.9375 0.5 -3.59375 1.0q-1.65625 0.5 -3.1875 1.125q-1.53125 0.625 -2.875 1.46875q-1.34375 0.84375 -2.34375 1.96875q-1.75 0.5 -3.15625 1.375q-1.40625 0.875 -2.625 1.9375q-1.21875 1.0625 -2.34375 2.21875q-1.125 1.15625 -2.25 2.28125q0 1.0625 -0.375 1.625q-0.375 0.5625 -0.8125 1.125q0.125 1.1875 0.53125 2.03125q0.40625 0.84375 0.84375 1.71875q5.0 1.5 10.59375 1.84375q5.59375 0.34375 11.09375 0.40625q0.5625 0.75 1.28125 1.40625q0.71875 0.65625 1.3125 1.34375q0.59375 0.6875 0.9375 1.59375q0.34375 0.90625 0.15625 2.15625q-1.0625 1.0625 -2.3125 2.03125q-1.25 0.96875 -2.5 1.90625q-0.5625 0.0625 -1.34375 0q-0.78125 -0.0625 -1.625 -0.0625q-0.84375 0 -1.6875 0.09375q-0.84375 0.09375 -1.59375 0.40625q-3.9375 -0.125 -8.0625 -0.96875q-4.125 -0.84375 -7.625 -2.03125q-0.6875 -0.8125 -1.4375 -1.53125q-0.75 -0.71875 -2.0 -1.03125zm34.6875 -29.8125q-0.0625 -0.5 -0.21875 -0.90625q-0.15625 -0.40625 -0.34375 -0.90625q-0.3125 -0.75 -0.5625 -1.625q-0.25 -0.875 -0.25 -2.0625q0.125 -0.625 0.3125 -0.90625q0.1875 -0.28125 0.375 -0.46875l0.25 -1.125l0.9375 0q0.5 0.0625 1.03125 0.0625q0.53125 0 1.03125 0q2.375 0 4.875 -0.1875q2.5 -0.1875 5.125 -0.4375q2.875 -0.375 6.1875153 -0.5625q0.3125 -0.6875 0.40625 -0.875q0.09375 -0.1875 0.21875 -0.4375l0.6875 -0.375q1.4375 -0.0625 2.0 0.34375q0.5625 0.40625 0.875 0.78125q1.625 -0.125 3.3125 -0.34375q1.6875 -0.21875 3.5 -0.46875q2.5 -0.3125 5.0625 -0.625q2.5625 -0.3125 5.0 -0.3125q1.0625 0 2.0 0.0625q0.9375 0.0625 1.8125 0.1875l0.75 0.5625q0.25 0.4375 0.625 0.8125q0.375 0.375 0.875 0.75q0.9375 0.75 1.84375 1.875q0.90625 1.125 0.65625 3.3125l-0.3125 0.625q-0.25 0.25 -0.625 0.5l-0.625 0.8125l-0.6875 0q-0.625 0 -0.9375 0.09375q-0.3125 0.09375 -0.75 0.28125q-0.25 0.125 -0.5625 0.21875q-0.3125 0.09375 -0.6875 0.21875q-0.6875 -0.0625 -1.0625 -0.0625q-0.375 0 -0.875 0q-1.875 0 -4.0625 0.25q-2.1875 0.25 -4.25 0.5625q-1.5 0.1875 -2.875 0.34375q-1.375 0.15625 -2.5 0.28125q-0.625 1.625 -1.125 2.875q-0.5 1.25 -1.0625 2.5q-0.5625 1.25 -1.0625 2.53125q-0.5 1.28125 -0.9375 2.84375q-0.75 1.125 -1.25 2.15625q-0.5 1.03125 -0.8125 2.34375q-0.9375 1.0625 -1.34375 2.3125q-0.40625 1.25 -0.71875 2.125l-0.25 0.9375q-0.4375 0.4375 -0.53125 0.6875q-0.09375 0.25 -0.34375 0.5625q-0.1875 0.8125 -0.5 1.5625q-0.125 0.3125 -0.25 0.65625q-0.125 0.34375 -0.0625 0.53125q-0.125 0.6875 -0.375 1.0625q0 0.375 -0.06251526 0.75q-0.0625 0.375 -0.125 0.75q-0.125 0.4375 -0.1875 0.78125q-0.0625 0.34375 0.0625 0.65625q0.1875 0.25 0.37501526 0.5q0.1875 0.25 0.3125 0.625q0.125 0.125 0.3125 0.1875q0.1875 0.0625 0.3125 0.1875q0.5 0.4375 0.9375 0.5l0.625 0.75q0.375 2.25 -0.6875 3.5q-1.125 1.4375 -3.7500153 1.4375l-0.875 -0.0625q-0.4375 -0.4375 -0.5 -0.5625q-0.5625 -0.25 -0.9375 -0.40625q-0.375 -0.15625 -0.6875 -0.59375q-0.125 -0.125 -0.3125 -0.15625q-0.1875 -0.03125 -0.3125 -0.15625q-0.625 -0.1875 -1.0 -0.4375l-0.6875 -0.375q0.0625 -0.625 0.0625 -0.875q-0.5 -0.6875 -0.78125 -1.5q-0.28125 -0.8125 -0.46875 -1.6875q-0.1875 -0.6875 -0.34375 -1.25q-0.15625 -0.5625 -0.46875 -1.0q-0.125 -4.375 0.8125 -7.34375q0.9375 -2.96875 2.0625 -5.78125q0.625 -1.5 1.1875 -3.0625q0.5625 -1.5625 1.0 -3.1875l0.6875 -0.6875q0.4375 -0.375 0.5625 -0.4375q0 -0.8125 0.3125 -1.59375q0.3125 -0.78125 0.6875 -1.59375q0.25 -0.5 0.46875 -1.0q0.21875 -0.5 0.28125 -0.875q-0.4375 0 -0.78125 0.03125q-0.34375 0.03125 -0.71875 0.09375q-0.8125 0.1875 -1.5625 0.1875q-0.5625 0 -0.8125 -0.0625q-0.5 0.25 -0.9375 0.28125q-0.4375 0.03125 -0.875 0.03125l-0.75 0l-0.75 0q-0.75 0 -1.1875 0.1875q-0.875 0 -1.125 0q-0.25 0 -0.5625 0l-0.75 0l-0.75 0q-0.5 0 -1.125 -0.09375q-0.625 -0.09375 -1.3125 -0.46875l-0.4375 -0.5q-0.375 -0.6875 -0.6875 -0.75l-0.6875 -0.1875l0 -0.6875zm38.562515 36.0q-0.875 -0.5625 -1.40625 -1.4375q-0.53125 -0.875 -0.875 -1.875q-0.34375 -1.0 -0.5625 -2.09375q-0.21875 -1.09375 -0.46875 -2.09375q0 -0.875 0.375 -1.28125q0.375 -0.40625 0.8125 -0.78125q1.5 -0.0625 2.6875 -0.25q1.1875 -0.1875 2.3125 -0.375q1.125 -0.1875 2.25 -0.34375q1.125 -0.15625 2.4375 -0.15625q0.9375 -1.9375 1.75 -3.71875q0.8125 -1.78125 1.5625 -3.40625q0.375 -1.5625 0.96875 -2.90625q0.59375 -1.34375 1.15625 -2.5625q0.5625 -1.21875 1.0 -2.4375q0.4375 -1.21875 0.5625 -2.59375q0.75 -2.1875 1.34375 -4.03125q0.59375 -1.84375 0.90625 -4.40625q-2.375 0.375 -3.8125 0.71875q-1.4375 0.34375 -2.0625 0.65625q-1.25 -0.0625 -1.96875 -0.5q-0.71875 -0.4375 -1.15625 -1.0625q-0.4375 -0.625 -0.75 -1.4375q-0.3125 -0.8125 -0.75 -1.6875q0.25 -0.5625 0.125 -1.65625q-0.125 -1.09375 -0.75 -1.59375q0.5 -0.125 0.75 -0.84375q0.25 -0.71875 0.0625 -1.09375q1.0625 -0.3125 2.25 -0.40625q1.1875 -0.09375 2.34375 -0.1875q1.15625 -0.09375 2.21875 -0.25q1.0625 -0.15625 1.8125 -0.65625q3.25 -0.125 6.78125 -0.25q3.53125 -0.125 6.53125 -0.3125q1.125 0.375 2.59375 0.375q1.46875 0 2.9375 0.1875q1.46875 0.1875 2.625 0.8125q1.15625 0.625 1.59375 2.1875q0.9375 0.125 1.40625 0.5q0.46875 0.375 0.59375 0.90625q0.125 0.53125 0.09375 1.1875q-0.03125 0.65625 -0.03125 1.28125q-1.0 0.75 -2.53125 1.21875q-1.53125 0.46875 -3.34375 0.75q-1.8125 0.28125 -3.78125 0.375q-1.96875 0.09375 -3.84375 0.15625q-0.3125 2.0625 -1.09375 4.84375q-0.78125 2.78125 -1.59375 5.4375q-0.8125 2.65625 -1.40625 4.75q-0.59375 2.09375 -0.53125 2.71875q-0.625 1.4375 -1.03125 2.4375q-0.40625 1.0 -0.75 1.875q-0.34375 0.875 -0.6875 1.71875q-0.34375 0.84375 -0.84375 1.90625l4.25 0q0.125 0.6875 0.5625 0.9375q0.4375 0.25 0.9375 0.4375q0.5 0.1875 0.90625 0.46875q0.40625 0.28125 0.40625 0.90625q1.1875 0.3125 1.5 0.9375q0.3125 0.625 0.15625 1.34375q-0.15625 0.71875 -0.625 1.46875q-0.46875 0.75 -0.90625 1.3125q-0.5625 -0.125 -1.0625 0.28125q-0.5 0.40625 -0.9375 0.90625q-1.8125 -0.25 -3.5625 -0.0625q-1.75 0.1875 -3.25 0.3125q-0.3125 0.0625 -0.25 0.34375q0.0625 0.28125 -0.125 0.40625q-1.9375 -0.625 -3.96875 -0.5q-2.03125 0.125 -4.125 0.59375q-2.09375 0.46875 -4.28125 1.0q-2.1875 0.53125 -4.4375 0.59375zm37.75 -6.1875q-1.8125 -1.375 -2.96875 -3.4375q-1.15625 -2.0625 -1.8125 -4.375q-0.65625 -2.3125 -0.875 -4.78125q-0.21875 -2.46875 -0.15625 -4.71875q0.5625 -1.6875 1.375 -3.09375q0.8125 -1.40625 1.8125 -2.6875q1.0 -1.28125 2.09375 -2.4375q1.09375 -1.15625 2.15625 -2.34375q0.375 0 0.6875 0.1875q0.25 -0.6875 0.75 -1.1875q0.5 -0.5 1.0625 -0.90625q0.5625 -0.40625 1.125 -0.8125q0.5625 -0.40625 0.9375 -0.96875q1.5625 -0.375 2.78125 -1.0625q1.21875 -0.6875 2.34375 -1.5q1.125 -0.8125 2.3125 -1.5q1.1875 -0.6875 2.75 -1.0625q0.5625 -0.625 1.40625 -1.0625q0.84375 -0.4375 1.6875 -0.8125q0.84375 -0.375 1.625 -0.8125q0.78125 -0.4375 1.28125 -1.1875q0.375 0.5 1.0625 0.34375q0.6875 -0.15625 1.25 -0.34375q0.375 -0.0625 0.625 0.125q0.25 0.1875 0.46875 0.40625q0.21875 0.21875 0.375 0.28125q0.15625 0.0625 0.34375 -0.375q0.5 0.0625 0.28125 0.4375q-0.21875 0.375 -0.28125 0.5q0.625 -0.125 1.03125 0.21875q0.40625 0.34375 1.28125 0.46875q0.3125 0.3125 0.1875 0.5q-0.125 0.1875 -0.1875 0.625q2.25 0.6875 2.875 2.15625q0.625 1.46875 0.125 3.0625q-0.5 1.59375 -1.84375 2.9375q-1.34375 1.34375 -2.96875 1.78125q-1.9375 0.5 -3.59375 1.0q-1.65625 0.5 -3.1875 1.125q-1.53125 0.625 -2.875 1.46875q-1.34375 0.84375 -2.34375 1.96875q-1.75 0.5 -3.15625 1.375q-1.40625 0.875 -2.625 1.9375q-1.21875 1.0625 -2.34375 2.21875q-1.125 1.15625 -2.25 2.28125q0 1.0625 -0.375 1.625q-0.375 0.5625 -0.8125 1.125q0.125 1.1875 0.53125 2.03125q0.40625 0.84375 0.84375 1.71875q5.0 1.5 10.59375 1.84375q5.59375 0.34375 11.09375 0.40625q0.5625 0.75 1.28125 1.40625q0.71875 0.65625 1.3125 1.34375q0.59375 0.6875 0.9375 1.59375q0.34375 0.90625 0.15625 2.15625q-1.0625 1.0625 -2.3125 2.03125q-1.25 0.96875 -2.5 1.90625q-0.5625 0.0625 -1.34375 0q-0.78125 -0.0625 -1.625 -0.0625q-0.84375 0 -1.6875 0.09375q-0.84375 0.09375 -1.59375 0.40625q-3.9375 -0.125 -8.0625 -0.96875q-4.125 -0.84375 -7.625 -2.03125q-0.6875 -0.8125 -1.4375 -1.53125q-0.75 -0.71875 -2.0 -1.03125zm36.8125 3.3125q-0.5 -0.5 -0.71875 -1.1875q-0.21875 -0.6875 -1.03125 -1.125q-0.125 -0.9375 -0.34375 -2.15625q-0.21875 -1.21875 -0.4375 -2.5q-0.21875 -1.28125 -0.3125 -2.5625q-0.09375 -1.28125 0.09375 -2.34375q0.125 -0.5625 0.40625 -1.0625q0.28125 -0.5 0.5625 -0.96875q0.28125 -0.46875 0.4375 -0.96875q0.15625 -0.5 0.03125 -1.0q0.375 -0.0625 0.46875 -0.40625q0.09375 -0.34375 0.59375 -0.21875q0.4375 -1.375 0.9375 -2.5625q0.5 -1.1875 1.0625 -2.3125q0.5625 -1.125 1.15625 -2.28125q0.59375 -1.15625 1.09375 -2.59375q-1.0625 -1.0 -1.53125 -2.15625q-0.46875 -1.15625 -0.71875 -2.34375q-0.25 -1.1875 -0.375 -2.40625q-0.125 -1.21875 -0.5 -2.46875q0.75 -1.125 1.8125 -1.84375q1.0625 -0.71875 2.34375 -1.1875q1.28125 -0.46875 2.78125 -0.75q1.5 -0.28125 3.1875 -0.65625q3.0 -0.9375 5.375 -1.46875q2.375 -0.53125 4.625 -0.875q2.25 -0.34375 4.6875 -0.625q2.4375 -0.28125 5.625 -0.84375q0.0625 0.1875 0.21875 0.1875q0.15625 0 0.40625 0q0.1875 0.4375 0.6875 0.4375q0 -0.1875 -0.03125 -0.34375q-0.03125 -0.15625 -0.03125 -0.28125q0.125 0 0.34375 0.0625q0.21875 0.0625 0.375 0.125q0.15625 0.0625 0.28125 -0.03125q0.125 -0.09375 0.0625 -0.40625q0.75 1.3125 1.9375 2.15625q1.1875 0.84375 2.625 1.46875q0.0625 0.5625 0.03125 0.8125q-0.03125 0.25 -0.09375 0.46875q-0.0625 0.21875 -0.0625 0.5q0 0.28125 0.125 0.78125q-1.0 1.6875 -2.28125 2.625q-1.28125 0.9375 -2.71875 1.4375q-1.4375 0.5 -3.03125 0.75q-1.59375 0.25 -3.25 0.53125q-1.65625 0.28125 -3.34375 0.78125q-1.6875 0.5 -3.3125 1.5q-0.5 -0.1875 -0.90625 -0.15625q-0.40625 0.03125 -0.84375 0.15625q-0.4375 0.125 -0.96875 0.25q-0.53125 0.125 -1.28125 0q-0.5 0.4375 -1.15625 0.625q-0.65625 0.1875 -1.34375 0.375q0.3125 0.6875 0.28125 1.375q-0.03125 0.6875 0.15625 1.1875q2.625 0.25 5.8125 -0.03125q3.1875 -0.28125 6.25 -0.40625q0.0625 0.3125 -0.0625 0.4375q-0.125 0.125 -0.125 0.4375q0.5625 0.375 1.0625 0.9375q0.5 0.5625 1.03125 1.09375q0.53125 0.53125 1.09375 0.875q0.5625 0.34375 1.3125 0.28125q0.3125 0.625 0.4375 1.3125q0.125 0.6875 -0.1875 1.4375q-1.25 0.8125 -2.4375 1.65625q-1.1875 0.84375 -2.46875 1.53125q-1.28125 0.6875 -2.78125 1.125q-1.5 0.4375 -3.25 0.375q-0.3125 0 -0.53125 0q-0.21875 0 -0.53125 -0.25q-0.625 0.3125 -1.65625 0.21875q-1.03125 -0.09375 -1.71875 0.21875q-0.875 -0.3125 -2.03125 -0.3125q-1.15625 0 -2.03125 -0.3125q-1.125 1.625 -2.125 3.40625q-1.0 1.78125 -1.75 3.78125q2.5625 0.375 4.25 0.3125q1.6875 -0.0625 3.1875 -0.25q1.5 -0.1875 3.09375 -0.375q1.59375 -0.1875 3.90625 -0.125q1.5625 -0.75 3.59375 -1.03125q2.03125 -0.28125 3.78125 -0.84375q0.625 0.1875 1.0625 0.71875q0.4375 0.53125 0.84375 1.0625q0.40625 0.53125 0.84375 0.90625q0.4375 0.375 1.125 0.25q0.3125 0.3125 0.40625 0.75q0.09375 0.4375 0.1875 0.8125q0.09375 0.375 0.28125 0.59375q0.1875 0.21875 0.6875 0.15625q-1.1875 2.4375 -2.65625 3.75q-1.46875 1.3125 -3.3125 2.03125q-1.84375 0.71875 -4.125 1.0625q-2.28125 0.34375 -5.09375 0.84375q-0.6875 0.125 -1.15625 -0.03125q-0.46875 -0.15625 -0.96875 -0.15625q-1.75 0.3125 -4.15625 0.625q-2.40625 0.3125 -4.84375 0.25q-2.4375 -0.0625 -4.6875 -0.625q-2.25 -0.5625 -3.75 -2.0z" fill-rule="nonzero"/></g></svg>