<svg version="1.1" viewBox="0.0 0.0 464.8582677165354 323.75853018372703" fill="none" stroke="none" stroke-linecap="square" stroke-miterlimit="10" xmlns:xlink="http://www.w3.org/1999/xlink" xmlns="http://www.w3.org/2000/svg"><clipPath id="p.0"><path d="m0 0l464.85828 0l0 323.75854l-464.85828 0l0 -323.75854z" clip-rule="nonzero"/></clipPath><g clip-path="url(#p.0)"><path fill="#000000" fill-opacity="0.0" d="m0 0l464.85828 0l0 323.75854l-464.85828 0z" fill-rule="evenodd"/><path fill="#434343" d="m11.5958 61.528557l0 0c0 -27.577099 22.355658 -49.932755 49.932755 -49.932755l344.70142 0c13.242981 0 25.943573 5.2607574 35.30777 14.624966c9.364227 9.36421 14.6249695 22.064802 14.6249695 35.307793l0 199.72504c0 27.577087 -22.355652 49.93274 -49.93274 49.93274l-344.70142 0c-27.577099 0 -49.932755 -22.355652 -49.932755 -49.93274z" fill-rule="evenodd"/><path stroke="#000000" stroke-width="1.0" stroke-linejoin="round" stroke-linecap="butt" d="m11.5958 61.528557l0 0c0 -27.577099 22.355658 -49.932755 49.932755 -49.932755l344.70142 0c13.242981 0 25.943573 5.2607574 35.30777 14.624966c9.364227 9.36421 14.6249695 22.064802 14.6249695 35.307793l0 199.72504c0 27.577087 -22.355652 49.93274 -49.93274 49.93274l-344.70142 0c-27.577099 0 -49.932755 -22.355652 -49.932755 -49.93274z" fill-rule="evenodd"/><path fill="#000000" fill-opacity="0.0" d="m16.514435 80.64829l430.64566 0l0 200.59842l-430.64566 0z" fill-rule="evenodd"/><path fill="#f9cb9c" d="m149.13737 115.06704q-0.109375 -0.671875 -0.265625 -0.828125q0.375 -0.9375 0.546875 -1.84375q0.1875 -0.921875 0.296875 -1.75q0.09375 -0.734375 0.21875 -1.359375q0.140625 -0.625 0.34375 -1.1875q0.890625 -0.21875 1.328125 -0.765625q0.453125 -0.546875 0.703125 -0.953125q0.9375 -0.0625 1.21875 0.25q0.296875 0.3125 0.65625 1.046875q0.265625 0.578125 0.734375 1.234375q0.46875 0.640625 1.40625 1.0q0.15625 0.578125 0.359375 1.109375q0.21875 0.515625 0.46875 1.078125q0.46875 1.09375 0.890625 2.265625q0.421875 1.171875 0.46875 2.21875q-0.625 1.1875 -0.96875 2.75q-0.328125 1.5625 -0.40625 3.15625q-0.078125 1.59375 0.078125 3.046875q0.15625 1.453125 0.515625 2.453125l0.3125 0.8281326l1.140625 -0.109375q1.875 -0.46875 3.390625 -1.0625076q1.515625 -0.59375 2.8125 -1.421875q1.296875 -0.84375 2.5 -1.90625q1.203125 -1.078125 2.5 -2.53125q1.25 -1.453125 2.234375 -3.296875q0.984375 -1.859375 1.640625 -3.828125q0.65625 -1.984375 1.015625 -3.953125q0.359375 -1.984375 0.46875 -3.703125q0.984375 -0.46875 1.09375 -1.515625l-0.15625 -0.671875q-0.15625 -0.265625 -0.140625 -0.5q0.03125 -0.234375 0.140625 -0.4375q0.421875 -1.203125 1.765625 -1.78125q0.9375 0.625 1.75 1.359375q0.8125 0.734375 1.484375 1.453125q0.109375 1.40625 0.421875 2.421875q0.3125 1.015625 0.671875 1.953125q0.359375 0.890625 0.640625 1.734375q0.296875 0.828125 0.40625 2.015625q-0.53125 1.5625 -0.765625 2.953125q-0.234375 1.375 -0.4375 2.875l-0.109375 0.578125q-0.9375 1.609375 -1.84375 3.3125q-0.90625 1.6875 -1.484375 2.9375q-0.3125 0.3125 -0.546875 0.734375q-0.234375 0.40625 -0.4375 0.828125q-0.109375 0.15625 -0.296875 0.53125q-0.171875 0.35938263 -0.328125 0.5156326l-1.25 -0.46875763l-0.3125 1.6093826l-0.84375 0.203125l-0.625 0.734375q-1.1875 2.078125 -2.515625 3.484375q-1.328125 1.40625 -2.96875 2.5q-1.640625 1.09375 -3.703125 2.0625q-2.046875 0.96875 -4.703125 2.0625q-1.046875 -0.15625 -1.8125 -0.1875q-0.75 -0.03125 -1.46875 -0.078125q-0.734375 0 -1.421875 -0.046875q-0.671875 -0.0625 -1.546875 -0.15625q-0.21875 -0.46875 -0.578125 -0.671875q-0.359375 -0.21875 -0.671875 -0.21875q-1.046875 -0.515625 -1.578125 -1.453125q-0.515625 -0.9375 -1.078125 -2.09375q-0.265625 -0.625 -0.5625 -1.25q-0.28125 -0.625 -0.6875 -1.1875l1.03125 -0.3125l-1.34375 -1.5625q-0.15625 -0.15625 -0.34375 -0.3125q-0.1875 -0.15625 -0.34375 -0.375l0 -0.984375q-0.203125 -4.2656326 -0.1875 -7.8906326q0.03125 -3.625 0.96875 -6.375l0.109375 -0.265625zm42.751587 20.890633q-0.515625 0.40625 -0.625 1.0625q-0.09375 0.65625 -0.25 1.28125q-0.15625 0.625 -0.546875 1.0625q-0.390625 0.4375 -1.390625 0.390625q-0.203125 0.265625 -0.078125 0.3125q0.140625 0.046875 0.234375 0.46875q-0.71875 -0.109375 -1.03125 0.109375q-0.3125 0.203125 -0.78125 0.3125q-1.203125 -0.375 -2.015625 -1.328125q-0.796875 -0.96875 -1.40625 -2.109375q-0.59375 -1.15625 -1.046875 -2.34375q-0.4375 -1.203125 -0.90625 -2.09375q0 -0.203125 0.1875 -0.171875q0.1875 0.015625 0.34375 0.015625q-0.265625 -0.515625 -0.390625 -1.15625q-0.140625 -0.65625 -0.5 -1.078125q1.515625 -3.2343826 3.234375 -6.7500076q1.71875 -3.515625 3.453125 -7.125q1.75 -3.625 3.484375 -7.296875q1.75 -3.671875 3.375 -7.203125q1.453125 0.515625 2.828125 1.21875q1.390625 0.703125 2.53125 1.640625q1.140625 0.9375 1.953125 2.171875q0.8125 1.21875 1.0625 2.78125q-0.09375 0.3125 -0.25 0.203125q-0.15625 -0.109375 -0.265625 0.109375q0.265625 0.3125 0.28125 0.4375q0.03125 0.125 -0.03125 0.265625q-0.046875 0.125 -0.046875 0.34375q0 0.203125 0.265625 0.5625q-0.265625 -0.046875 -0.375 0.078125q-0.09375 0.125 -0.359375 0.03125q0.265625 0.71875 0.15625 1.140625q-0.09375 0.421875 -0.3125 0.765625q-0.203125 0.328125 -0.34375 0.71875q-0.125 0.390625 0.09375 1.0625q-0.21875 0 -0.296875 0.078125q-0.078125 0.078125 -0.125 0.1875q-0.046875 0.09375 -0.125 0.171875q-0.078125 0.078125 -0.296875 0.03125q0.15625 1.359375 0.109375 2.734375q-0.046875 1.375 -0.109375 2.8125q-0.046875 1.4375 0 2.953125q0.0625 1.5 0.421875 3.109375q2.234375 -1.296875 3.609375 -3.375q1.390625 -2.09375 2.1875 -4.640625q0.8125 -2.546875 1.25 -5.453125q0.453125 -2.921875 0.921875 -5.953125q0.5625 -0.5625 0.90625 -1.390625q0.34375 -0.84375 0.578125 -1.71875q0.234375 -0.890625 0.46875 -1.796875q0.234375 -0.921875 0.640625 -1.65625q0.9375 0.109375 1.59375 0.5625q0.65625 0.4375 1.21875 0.984375q0.578125 0.546875 1.203125 1.015625q0.625 0.46875 1.5625 0.625q0.734375 1.03125 1.359375 2.0q0.625 0.96875 0.828125 2.15625q-0.3125 0.53125 -0.46875 1.15625q-0.15625 0.625 -0.34375 1.25q-0.171875 0.625 -0.484375 1.140625q-0.3125 0.515625 -0.890625 0.890625q-0.15625 1.546875 -0.46875 2.90625q-0.3125 1.359375 -0.578125 2.65625q-0.25 1.296875 -0.46875 2.703125q-0.203125 1.40625 -0.15625 3.078125q-0.46875 1.515625 -1.046875 3.1093826q-0.5625 1.578125 -0.828125 2.9375q-0.984375 0.78125 -1.5625 1.921875q-0.5625 1.140625 -1.1875 2.296875q-0.265625 0.203125 -0.328125 0.078125q-0.046875 -0.140625 -0.453125 -0.1875q0.046875 0.46875 -0.1875 0.609375q-0.234375 0.125 0.03125 0.75q-0.890625 0.40625 -1.5625 1.09375q-0.671875 0.671875 -1.484375 1.25q-0.8125 0.5625 -1.875 0.75q-1.0625 0.1875 -2.78125 -0.4375q-2.5625 -1.875 -4.59375 -4.328125q-2.03125 -2.453125 -3.21875 -5.78125q-0.53125 0.15625 -0.796875 0.6875q-0.25 0.515625 -0.46875 1.09375q-0.203125 0.5625 -0.40625 1.03125q-0.203125 0.46875 -0.625 0.46875q-0.109375 0.46875 -0.390625 0.859375q-0.28125 0.390625 -0.546875 0.78125q-0.265625 0.390625 -0.390625 0.859375q-0.125 0.46875 0.125 1.046875zm32.19435 5.46875q-1.515625 -0.375 -2.328125 -1.234375q-0.796875 -0.859375 -1.1875 -2.03125q-0.390625 -1.171875 -0.53125 -2.578125q-0.125 -1.40625 -0.28125 -2.90625q0.203125 -0.6875 0.546875 -1.15625q0.34375 -0.46875 0.28125 -1.296875q0.578125 -1.671875 1.046875 -3.2343826q0.46875 -1.5625 0.625 -3.21875q0.3125 -0.46875 0.625 -0.625q0.421875 -2.96875 0.109375 -6.09375q-0.3125 -3.125 -1.046875 -5.78125q0.046875 -0.578125 0.15625 -0.859375q0.109375 -0.28125 0 -0.5q-0.109375 -0.46875 0.3125 -0.46875q0.421875 0 0.828125 0q0 -0.9375 -0.34375 -1.84375q-0.328125 -0.90625 -0.640625 -2.109375q0.421875 -0.9375 0.578125 -1.8125q0.15625 -0.890625 0.5625 -1.625q1.671875 0.515625 3.28125 1.203125q1.625 0.671875 3.1875 1.328125q1.5625 0.640625 3.0625 1.25q1.515625 0.59375 2.96875 0.953125q2.25 1.625 4.609375 3.21875q2.375 1.578125 4.328125 3.484375q1.953125 1.890625 3.25 4.34375q1.296875 2.4375 1.515625 5.78125q-0.109375 0.3125 -0.171875 0.515625q-0.046875 0.203125 -0.09375 0.421875q-0.046875 0.203125 -0.046875 0.46875q0 0.25 0 0.71875q-1.875 3.2812576 -4.75 5.5312576q-2.859375 2.234375 -6.25 3.953125q-3.375 1.71875 -7.046875 3.15625q-3.671875 1.421875 -7.15625 3.046875zm5.09375 -29.531258q-0.46875 0 -0.671875 0.203125q0.625 2.34375 0.9375 4.4375q0.3125 2.078125 0.328125 4.15625q0.03125 2.078125 -0.234375 4.265625q-0.25 2.1875 -0.71875 4.7500076q0.671875 -0.0625 1.1875 -0.265625q0.53125 -0.203125 1.078125 -0.46875q0.546875 -0.265625 1.140625 -0.46875q0.609375 -0.203125 1.390625 -0.265625q0.203125 -0.40625763 0.53125 -0.6406326q0.34375 -0.234375 0.609375 -0.5q1.296875 -0.515625 2.59375 -1.09375q1.3125 -0.578125 2.40625 -1.296875q1.09375 -0.734375 1.96875 -1.671875q0.890625 -0.9375 1.46875 -2.234375q-0.421875 -0.78125 -1.015625 -1.328125q-0.59375 -0.546875 -1.25 -1.09375q-0.65625 -0.546875 -1.25 -1.140625q-0.59375 -0.609375 -0.96875 -1.390625q-0.828125 -0.109375 -1.453125 -0.4375q-0.625 -0.34375 -1.203125 -0.671875q-0.5625 -0.34375 -1.21875 -0.65625q-0.65625 -0.3125 -1.53125 -0.359375q-1.359375 -0.734375 -2.453125 -1.015625q-1.09375 -0.296875 -1.671875 -0.8125zm24.121933 27.187508q-0.421875 -0.421875 -0.609375 -0.984375q-0.171875 -0.578125 -0.859375 -0.953125q-0.09375 -0.78125 -0.28125 -1.796875q-0.1875 -1.015625 -0.375 -2.078125q-0.171875 -1.0625 -0.25 -2.125q-0.078125 -1.078125 0.078125 -1.96875q0.109375 -0.46875 0.34375 -0.875q0.234375 -0.42188263 0.46875 -0.8125076q0.234375 -0.390625 0.359375 -0.796875q0.125 -0.421875 0.03125 -0.84375q0.3125 -0.046875 0.390625 -0.328125q0.078125 -0.296875 0.484375 -0.1875q0.375 -1.15625 0.78125 -2.140625q0.421875 -0.984375 0.890625 -1.921875q0.46875 -0.9375 0.953125 -1.90625q0.50001526 -0.96875 0.92189026 -2.15625q-0.89064026 -0.84375 -1.2812653 -1.796875q-0.390625 -0.96875 -0.59375 -1.953125q-0.203125 -0.984375 -0.3125 -2.0q-0.109375 -1.015625 -0.421875 -2.0625q0.625 -0.9375 1.515625 -1.53125q0.89064026 -0.609375 1.9531403 -1.0q1.0625 -0.390625 2.3125 -0.625q1.25 -0.234375 2.65625 -0.546875q2.5 -0.78125 4.484375 -1.21875q1.984375 -0.4375 3.859375 -0.71875q1.8749695 -0.296875 3.9062195 -0.53125q2.03125 -0.234375 4.671875 -0.703125q0.0625 0.15625 0.1875 0.15625q0.125 0 0.34375 0q0.15625 0.359375 0.5625 0.359375q0 -0.15625 -0.03125 -0.28125q-0.015625 -0.125 -0.015625 -0.234375q0.109375 0 0.28125 0.0625q0.1875 0.046875 0.3125 0.09375q0.140625 0.046875 0.234375 -0.03125q0.109375 -0.078125 0.0625 -0.328125q0.625 1.09375 1.609375 1.796875q0.984375 0.703125 2.1875 1.21875q0.046875 0.46875 0.015625 0.6875q-0.015625 0.203125 -0.078125 0.390625q-0.046875 0.171875 -0.046875 0.40625q0 0.234375 0.109375 0.65625q-0.828125 1.40625 -1.90625 2.1875q-1.0625 0.78125 -2.265625 1.203125q-1.1875 0.40625 -2.515625 0.625q-1.328125 0.203125 -2.71875 0.4375q-1.375 0.234375 -2.78125 0.65625q-1.4062195 0.40625 -2.7499695 1.234375q-0.421875 -0.15625 -0.765625 -0.125q-0.328125 0.03125 -0.703125 0.140625q-0.359375 0.09375 -0.8125 0.203125q-0.4375 0.09375 -1.0625 0q-0.40625 0.359375 -0.953125 0.515625q-0.546875 0.15625 -1.125 0.3125q0.265625 0.5625 0.234375 1.140625q-0.03125 0.578125 0.125 0.984375q2.1875 0.21875 4.84375 -0.015625q2.6562195 -0.234375 5.2187195 -0.34375q0.046875 0.265625 -0.0625 0.375q-0.09375 0.09375 -0.09375 0.359375q0.46875 0.3125 0.875 0.78125q0.421875 0.46875 0.859375 0.90625q0.4375 0.4375 0.90625 0.734375q0.46875 0.28125 1.09375 0.234375q0.265625 0.515625 0.359375 1.09375q0.109375 0.5625 -0.140625 1.1875q-1.046875 0.6875 -2.03125 1.390625q-0.984375 0.703125 -2.0625 1.28125q-1.0625 0.5625 -2.3125 0.9375q-1.2499695 0.359375 -2.7030945 0.296875q-0.265625 0 -0.453125 0q-0.171875 0 -0.4375 -0.203125q-0.515625 0.265625 -1.375 0.1875q-0.859375 -0.078125 -1.4375 0.171875q-0.734375 -0.25 -1.703125 -0.25q-0.953125 0 -1.6875 -0.265625q-0.9375 1.359375 -1.765625 2.8437576q-0.828125 1.484375 -1.453125 3.140625q2.125 0.3125 3.53125 0.265625q1.40625 -0.046875 2.65625 -0.203125q1.25 -0.15625 2.578125 -0.3125q1.328125 -0.15625 3.265625 -0.109375q1.2968445 -0.625 2.9843445 -0.859375q1.703125 -0.234375 3.15625 -0.703125q0.515625 0.15625 0.875 0.609375q0.375 0.4375 0.703125 0.875q0.34375 0.4375 0.703125 0.75q0.375 0.3125 0.9375 0.21875q0.265625 0.25 0.34375 0.625q0.078125 0.359375 0.15625 0.671875q0.078125 0.3125 0.234375 0.5q0.15625 0.171875 0.578125 0.125q-1.0 2.03125 -2.21875 3.125q-1.21875 1.09375 -2.765625 1.703125q-1.53125 0.59375 -3.4375 0.875q-1.8905945 0.28125 -4.2343445 0.703125q-0.578125 0.109375 -0.96875 -0.015625q-0.390625 -0.140625 -0.796875 -0.140625q-1.46875 0.265625 -3.46875 0.515625q-2.0 0.265625 -4.03125 0.203125q-2.03125 -0.046875 -3.90625 -0.515625q-1.8750153 -0.46875 -3.1250153 -1.65625zm31.9655 -2.71875q-0.25 0.0625 -0.46875 -0.375q-0.203125 -0.453125 -0.46875 -0.875l0.578125 0q-0.359375 -1.140625 -0.1875 -2.09375q0.1875 -0.96875 0.4375 -1.875q0.265625 -0.921875 0.453125 -1.78125q0.1875 -0.859375 -0.1875 -1.7968826q0.265625 0.15625 0.390625 -0.125q0.140625 -0.296875 0.21875 -0.734375q0.078125 -0.4375 0.046875 -0.9375q-0.03125 -0.5 -0.078125 -0.8125q0.671875 -1.609375 1.0625 -3.328125q0.390625 -1.71875 0.703125 -3.40625q0.3125 -1.703125 0.703125 -3.28125q0.390625 -1.59375 1.015625 -3.0q0.734375 -0.09375 1.53125 0.1875q0.8125 0.28125 1.078125 0.703125q1.609375 -1.25 2.859375 -3.015625q1.25 -1.78125 2.53125 -3.46875q1.28125 -1.6875 2.890625 -2.984375q1.609375 -1.3125 4.015625 -1.578125q1.25 0.890625 2.8125 1.90625q1.5625 1.015625 2.546875 2.53125q0.421875 0.25 0.796875 0.546875q0.390625 0.28125 0.8125 0.546875l0 0.78125q0.734375 0.671875 1.21875 1.59375q0.5 0.90625 0.890625 1.921875q0.390625 1.015625 0.75 2.0625q0.375 1.03125 0.84375 1.90625q-0.109375 0.3125 -0.09375 0.546875q0.03125 0.234375 0.109375 0.46875q0.078125 0.234375 0.125 0.53125q0.0625 0.28125 0.0625 0.703125q-0.203125 2.75 -1.796875 4.453125q-1.59375 1.6875 -3.859375 2.765625q-2.25 1.0625 -4.8125 1.8125q-2.546875 0.75 -4.625 1.6406326q0 0.203125 0.234375 0.203125q0.234375 0 0.125 0.3125q1.5625 0.9375 2.421875 1.515625q0.859375 0.578125 1.609375 0.96875q0.765625 0.390625 1.671875 0.65625q0.90625 0.25 2.53125 0.609375q1.609375 0.375 2.515625 0.609375q0.90625 0.234375 1.640625 0.359375q0.734375 0.125 1.5625 0.234375q0.828125 0.109375 2.234375 0.265625q0.578125 0.5625 0.9375 1.34375q0.375 0.78125 0.53125 1.5625q0.15625 0.78125 0.078125 1.484375q-0.078125 0.703125 -0.453125 1.125q0.0625 0.203125 0.296875 0.1875q0.234375 -0.03125 0.484375 0.015625q-0.359375 0.265625 -0.625 0.640625q-0.25 0.359375 -0.515625 0.71875q-0.265625 0.359375 -0.609375 0.671875q-0.328125 0.3125 -0.84375 0.375q-1.875 0.71875 -4.796875 0.046875q-2.90625 -0.671875 -7.4375 -2.390625q-2.25 -0.84375 -3.65625 -1.515625q-1.40625 -0.671875 -2.453125 -1.328125q-1.03125 -0.65625 -1.921875 -1.40625q-0.875 -0.75 -2.03125 -1.796875q-0.15625 0.046875 -0.1875 0.203125q-0.015625 0.15625 -0.171875 0.21875q-0.265625 2.078125 -0.8125 3.390625q-0.546875 1.296875 -1.578125 2.640625q-0.84375 -0.15625 -1.125 0.15625q-0.28125 0.3125 -0.703125 0.578125q-0.515625 0.109375 -0.78125 -0.03125q-0.265625 -0.125 -0.46875 -0.28125q-0.203125 -0.15625 -0.46875 -0.3125q-0.265625 -0.15625 -0.828125 -0.109375q-0.15625 -0.46875 -0.3125 -0.90625q-0.15625 -0.4375 -0.84375 -0.390625q0.15625 -0.46875 0.109375 -0.796875q-0.046875 -0.34375 -0.15625 -0.625q-0.109375 -0.296875 -0.1875 -0.609375q-0.078125 -0.3125 0.078125 -0.734375zm17.40625 -23.796883q-0.6875 1.0 -1.515625 1.8125q-0.828125 0.796875 -1.640625 1.65625q-0.8125 0.859375 -1.4375 1.875q-0.625 1.015625 -0.875 2.421875q2.1875 -0.265625 4.578125 -1.21875q2.390625 -0.96875 4.53125 -1.859375q-0.265625 -1.921875 -1.359375 -3.09375q-1.09375 -1.171875 -2.28125 -1.59375z" fill-rule="nonzero"/><path fill="#f9cb9c" d="m30.607407 200.31705q-1.515625 -1.140625 -2.484375 -2.859375q-0.953125 -1.71875 -1.5 -3.640625q-0.546875 -1.9375 -0.734375 -3.984375q-0.171875 -2.0625 -0.125 -3.9375q0.46875 -1.40625 1.140625 -2.578125q0.6875 -1.171875 1.515625 -2.234375q0.828125 -1.078125 1.734375 -2.03125q0.921875 -0.96875 1.8125 -1.953125q0.3125 0 0.5625 0.15625q0.21875 -0.578125 0.625 -0.984375q0.421875 -0.421875 0.890625 -0.765625q0.46875 -0.34375 0.9375 -0.671875q0.46875 -0.34375 0.78125 -0.8125q1.296875 -0.3125 2.3125 -0.875q1.015625 -0.578125 1.953125 -1.25q0.9375 -0.6875 1.921875 -1.25q1.0 -0.578125 2.296875 -0.890625q0.46875 -0.53125 1.171875 -0.890625q0.703125 -0.359375 1.40625 -0.671875q0.703125 -0.3125 1.359375 -0.671875q0.65625 -0.375 1.0625 -1.0q0.3125 0.421875 0.890625 0.296875q0.578125 -0.140625 1.046875 -0.296875q0.3125 -0.046875 0.515625 0.109375q0.203125 0.15625 0.390625 0.34375q0.1875 0.171875 0.3125 0.234375q0.125 0.046875 0.28125 -0.328125q0.421875 0.0625 0.234375 0.375q-0.1875 0.3125 -0.234375 0.40625q0.515625 -0.09375 0.859375 0.1875q0.34375 0.28125 1.0625 0.390625q0.265625 0.265625 0.15625 0.421875q-0.09375 0.15625 -0.15625 0.515625q1.875 0.578125 2.390625 1.796875q0.53125 1.21875 0.109375 2.546875q-0.40625 1.328125 -1.53125 2.453125q-1.125 1.125 -2.46875 1.484375q-1.609375 0.421875 -3.0 0.84375q-1.375 0.40625 -2.65625 0.921875q-1.265625 0.515625 -2.390625 1.21875q-1.125 0.703125 -1.953125 1.640625q-1.453125 0.421875 -2.625 1.15625q-1.171875 0.71875 -2.1875 1.609375q-1.015625 0.890625 -1.953125 1.859375q-0.9375 0.953125 -1.875 1.890625q0 0.890625 -0.3125 1.359375q-0.3125 0.46875 -0.6875 0.9375q0.109375 0.984375 0.4375 1.6875q0.34375 0.703125 0.71875 1.4375q4.15625 1.25 8.8125 1.53125q4.671875 0.28125 9.25 0.34375q0.46875 0.625 1.0625 1.171875q0.609375 0.546875 1.09375 1.125q0.5 0.5625 0.78125 1.328125q0.296875 0.75 0.140625 1.78125q-0.890625 0.890625 -1.9375 1.703125q-1.03125 0.796875 -2.078125 1.578125q-0.46875 0.0625 -1.125 0.015625q-0.640625 -0.0625 -1.34375 -0.0625q-0.703125 0 -1.40625 0.078125q-0.703125 0.078125 -1.328125 0.34375q-3.28125 -0.109375 -6.71875 -0.8125q-3.4375 -0.703125 -6.359375 -1.6875q-0.5625 -0.6875 -1.1875 -1.28125q-0.625 -0.59375 -1.671875 -0.859375zm40.304108 4.734375q-2.28125 0.3125 -4.15625 -0.203125q-1.875 -0.515625 -3.359375 -1.609375q-1.484375 -1.09375 -2.5625 -2.609375q-1.0625 -1.515625 -1.734375 -3.234375q-0.46875 -3.53125 0.25 -6.421875q0.734375 -2.890625 2.140625 -5.34375q1.40625 -2.453125 3.203125 -4.578125q1.796875 -2.140625 3.46875 -4.109375q0.359375 0.15625 0.59375 0q0.234375 -0.15625 0.40625 -0.421875q0.1875 -0.265625 0.421875 -0.515625q0.234375 -0.265625 0.546875 -0.375q0.21875 -0.46875 0.546875 -0.78125q0.34375 -0.3125 0.734375 -0.59375q0.390625 -0.28125 0.71875 -0.59375q0.34375 -0.3125 0.609375 -0.78125q0.515625 -0.109375 0.90625 -0.359375q0.390625 -0.265625 0.734375 -0.578125q0.34375 -0.3125 0.703125 -0.578125q0.359375 -0.265625 0.890625 -0.421875l0 -0.671875q1.140625 -0.515625 1.65625 -1.140625q0.53125 -0.625 1.25 -1.625q0.578125 -0.046875 0.90625 -0.046875q0.34375 0 1.078125 -0.109375q0.46875 -0.875 0.875 -1.296875q0.421875 -0.421875 1.203125 -0.9375q0.78125 0.421875 1.65625 0.5q0.890625 0.078125 1.625 0.796875q0.046875 0.625 0.359375 0.96875q0.3125 0.34375 0.671875 0.625q0.375 0.28125 0.734375 0.59375q0.375 0.3125 0.46875 0.890625q0.265625 0 0.34375 -0.09375q0.078125 -0.109375 0.34375 -0.0625q0.09375 0.421875 0.203125 0.6875q0.109375 0.25 0.234375 0.46875q0.125 0.203125 0.25 0.46875q0.140625 0.25 0.25 0.609375q-0.265625 0.625 -0.484375 1.328125q-0.203125 0.703125 -0.828125 0.96875q0 0.421875 0.3125 0.453125q0.3125 0.015625 0.375 0.375q0.046875 0.46875 -0.15625 0.78125q1.453125 2.453125 2.640625 5.140625q1.203125 2.671875 2.71875 5.125q-0.109375 0.71875 0.078125 1.421875q0.1875 0.703125 0.46875 1.390625q0.28125 0.671875 0.546875 1.359375q0.265625 0.671875 0.359375 1.34375q0.109375 0.890625 0 1.90625q-0.09375 1.015625 -0.40625 1.953125q-0.3125 0.9375 -0.84375 1.75q-0.515625 0.796875 -1.1875 1.21875q-0.84375 1.03125 -2.09375 1.6875q-1.25 0.65625 -2.28125 1.53125q-0.734375 0.421875 -1.578125 0.609375q-0.828125 0.171875 -1.703125 0.390625q-0.6875 0.40625 -1.625 0.796875q-0.921875 0.390625 -1.921875 0.703125q-0.984375 0.3125 -1.984375 0.5q-0.984375 0.1875 -1.765625 0.078125q-1.875 0.671875 -3.640625 0.9375q-1.765625 0.265625 -4.171875 -0.265625zm0.6875 -18.953125q-0.53125 1.203125 -1.234375 2.171875q-0.703125 0.953125 -1.375 1.953125q-0.671875 0.984375 -1.171875 2.109375q-0.5 1.109375 -0.546875 2.625q1.046875 0.875 2.46875 1.0625q1.4375 0.1875 2.9375 0.0625q1.515625 -0.140625 3.03125 -0.390625q1.515625 -0.265625 2.703125 -0.265625q0 -0.46875 0.421875 -0.46875q2.1875 -0.21875 4.0625 -1.234375q1.875 -1.015625 3.90625 -2.046875q0.25 -0.625 0.671875 -1.09375q0.421875 -0.46875 0.46875 -1.359375q-0.265625 -0.46875 -0.34375 -0.78125q-0.078125 -0.3125 -0.078125 -0.9375q-1.34375 -1.875 -2.34375 -4.078125q-0.984375 -2.21875 -2.28125 -4.203125q-0.109375 0.265625 -0.421875 0.53125q-0.3125 0.25 -0.671875 -0.109375q-0.15625 0.515625 -0.46875 0.703125q-0.3125 0.171875 -0.703125 0.171875q-0.390625 0 -0.78125 -0.15625q-0.390625 -0.15625 -0.703125 -0.40625q-1.828125 1.453125 -3.625 2.8125q-1.796875 1.34375 -3.25 3.171875q-0.265625 0.15625 -0.3125 0.109375q-0.046875 -0.0625 -0.359375 0.046875zm35.871124 13.859375q-0.515625 0.40625 -0.625 1.0625q-0.09375 0.65625 -0.25 1.28125q-0.15625 0.625 -0.546875 1.0625q-0.390625 0.4375 -1.390625 0.390625q-0.203125 0.265625 -0.078125 0.3125q0.140625 0.046875 0.234375 0.46875q-0.71875 -0.109375 -1.03125 0.109375q-0.3125 0.203125 -0.78125 0.3125q-1.203125 -0.375 -2.015625 -1.328125q-0.796875 -0.96875 -1.40625 -2.109375q-0.59375 -1.15625 -1.046875 -2.34375q-0.4375 -1.203125 -0.90625 -2.09375q0 -0.203125 0.1875 -0.171875q0.1875 0.015625 0.34375 0.015625q-0.265625 -0.515625 -0.390625 -1.15625q-0.140625 -0.65625 -0.5 -1.078125q1.515625 -3.234375 3.234375 -6.75q1.71875 -3.515625 3.453125 -7.125q1.75 -3.625 3.484375 -7.296875q1.75 -3.671875 3.375 -7.203125q1.453125 0.515625 2.828125 1.21875q1.390625 0.703125 2.53125 1.640625q1.140625 0.9375 1.953125 2.171875q0.8125 1.21875 1.0625 2.78125q-0.09375 0.3125 -0.25 0.203125q-0.15625 -0.109375 -0.265625 0.109375q0.265625 0.3125 0.28125 0.4375q0.03125 0.125 -0.03125 0.265625q-0.046875 0.125 -0.046875 0.34375q0 0.203125 0.265625 0.5625q-0.265625 -0.046875 -0.375 0.078125q-0.09375 0.125 -0.359375 0.03125q0.265625 0.71875 0.15625 1.140625q-0.09375 0.421875 -0.3125 0.765625q-0.203125 0.328125 -0.34375 0.71875q-0.125 0.390625 0.09375 1.0625q-0.21875 0 -0.296875 0.078125q-0.078125 0.078125 -0.125 0.1875q-0.046875 0.09375 -0.125 0.171875q-0.078125 0.078125 -0.296875 0.03125q0.15625 1.359375 0.109375 2.734375q-0.046875 1.375 -0.109375 2.8125q-0.046875 1.4375 0 2.953125q0.0625 1.5 0.421875 3.109375q2.234375 -1.296875 3.609375 -3.375q1.390625 -2.09375 2.1875 -4.640625q0.8125 -2.546875 1.25 -5.453125q0.453125 -2.921875 0.921875 -5.953125q0.5625 -0.5625 0.90625 -1.390625q0.34375 -0.84375 0.578125 -1.71875q0.234375 -0.890625 0.46875 -1.796875q0.234375 -0.921875 0.640625 -1.65625q0.9375 0.109375 1.59375 0.5625q0.65625 0.4375 1.21875 0.984375q0.578125 0.546875 1.203125 1.015625q0.625 0.46875 1.5625 0.625q0.734375 1.03125 1.359375 2.0q0.625 0.96875 0.828125 2.15625q-0.3125 0.53125 -0.46875 1.15625q-0.15625 0.625 -0.34375 1.25q-0.171875 0.625 -0.484375 1.140625q-0.3125 0.515625 -0.890625 0.890625q-0.15625 1.546875 -0.46875 2.90625q-0.3125 1.359375 -0.578125 2.65625q-0.25 1.296875 -0.46875 2.703125q-0.203125 1.40625 -0.15625 3.078125q-0.46875 1.515625 -1.046875 3.109375q-0.5625 1.578125 -0.828125 2.9375q-0.984375 0.78125 -1.5625 1.921875q-0.5625 1.140625 -1.1875 2.296875q-0.265625 0.203125 -0.328125 0.078125q-0.046875 -0.140625 -0.453125 -0.1875q0.046875 0.46875 -0.1875 0.609375q-0.234375 0.125 0.03125 0.75q-0.890625 0.40625 -1.5625 1.09375q-0.671875 0.671875 -1.484375 1.25q-0.8125 0.5625 -1.875 0.75q-1.0625 0.1875 -2.78125 -0.4375q-2.5625 -1.875 -4.59375 -4.328125q-2.03125 -2.453125 -3.21875 -5.78125q-0.53125 0.15625 -0.796875 0.6875q-0.25 0.515625 -0.46875 1.09375q-0.203125 0.5625 -0.40625 1.03125q-0.203125 0.46875 -0.625 0.46875q-0.109375 0.46875 -0.390625 0.859375q-0.28125 0.390625 -0.546875 0.78125q-0.265625 0.390625 -0.390625 0.859375q-0.125 0.46875 0.125 1.046875zm27.756851 -18.59375q0.15625 -0.78125 0.203125 -1.28125q0.0625 -0.5 -0.359375 -1.0625q0.21875 -0.84375 0.34375 -1.296875q0.125 -0.46875 0.03125 -1.3125q0.46875 -1.34375 1.421875 -2.28125q0.96875 -0.9375 2.109375 -1.59375q1.15625 -0.65625 2.40625 -1.09375q1.25 -0.4375 2.34375 -0.75q0 -0.21875 -0.21875 -0.21875q-0.203125 0 -0.09375 -0.25q2.8125 -0.53125 5.640625 -1.515625q2.84375 -0.984375 5.8125 -1.765625q2.96875 -0.78125 6.09375 -0.96875q3.125 -0.1875 6.5625 0.8125q0.203125 0.625 0.5625 1.203125q0.375 0.5625 0.765625 1.109375q0.390625 0.546875 0.703125 1.078125q0.3125 0.515625 0.359375 1.078125q0.625 0.578125 1.015625 1.234375q0.390625 0.640625 0.125 1.734375q-0.5625 0.421875 -1.1875 0.84375q-0.625 0.40625 -1.3125 0.78125q-2.34375 -0.578125 -4.6875 -0.421875q-2.34375 0.15625 -4.203125 0.359375q-0.578125 -0.625 -1.359375 -0.59375q-0.78125 0.03125 -1.640625 0.265625q-0.859375 0.234375 -1.703125 0.46875q-0.828125 0.234375 -1.546875 0.125q-0.578125 0.515625 -1.515625 0.703125q-0.9375 0.1875 -1.984375 0.28125q-0.046875 0.265625 0.109375 0.375q0.15625 0.09375 0.046875 0.40625q0.375 0.46875 1.0 0.65625q0.625 0.171875 1.265625 0.328125q0.65625 0.15625 1.171875 0.453125q0.53125 0.28125 0.6875 0.90625q0.9375 0.046875 1.609375 0.5q0.671875 0.4375 1.140625 1.0625q0.46875 0.625 0.671875 1.328125q0.21875 0.703125 0.171875 1.28125q0.203125 0.515625 0.4375 0.421875q0.234375 -0.109375 0.546875 0.25q0.203125 0.78125 0.953125 1.640625q0.765625 0.859375 1.1875 1.84375q0.09375 1.5625 0.171875 2.8125q0.078125 1.25 -0.4375 2.453125q-0.890625 2.296875 -2.5625 4.125q-1.65625 1.8125 -3.765625 3.203125q-2.109375 1.375 -4.453125 2.390625q-2.34375 1.015625 -4.640625 1.6875q-0.203125 -0.046875 -0.5 0q-0.28125 0.046875 -0.125 -0.3125q-0.46875 0.421875 -1.0625 0.515625q-0.59375 0.109375 -1.296875 0.078125q-0.703125 -0.015625 -1.40625 -0.078125q-0.703125 -0.046875 -1.390625 0.0625q-0.40625 -0.421875 -0.75 -0.828125q-0.34375 -0.421875 -0.546875 -1.0q-0.265625 -0.046875 -0.234375 -0.328125q0.03125 -0.296875 -0.234375 -0.296875q0 -0.203125 0.046875 -0.3125q0.0625 -0.109375 0.109375 -0.203125q0.203125 -0.15625 0.171875 -0.234375q-0.015625 -0.078125 -0.15625 -0.15625q-0.125 -0.078125 -0.25 -0.1875q-0.125 -0.109375 -0.078125 -0.265625q0.265625 -0.46875 0.1875 -1.109375q-0.078125 -0.65625 -0.140625 -1.328125q-0.046875 -0.6875 0.109375 -1.28125q0.15625 -0.59375 0.890625 -1.015625q2.125 0.203125 4.03125 -0.203125q1.90625 -0.421875 3.59375 -1.140625q1.6875 -0.734375 3.21875 -1.59375q1.546875 -0.859375 3.0 -1.59375q0.15625 -0.515625 0.5 -0.875q0.34375 -0.375 0.703125 -0.703125q0.359375 -0.34375 0.671875 -0.734375q0.3125 -0.390625 0.46875 -0.96875q0.0625 -0.203125 0 -0.3125q-0.046875 -0.109375 -0.15625 -0.1875q-0.09375 -0.078125 -0.203125 -0.171875q-0.109375 -0.109375 -0.109375 -0.3125q-0.15625 -0.0625 -0.28125 -0.109375q-0.125 -0.046875 -0.234375 -0.046875q-1.359375 -0.6875 -2.875 -1.15625q-1.5 -0.46875 -2.546875 -1.03125q-0.625 0.40625 -1.25 0.203125q-0.625 -0.203125 -1.5 -0.421875q-2.1875 -0.09375 -4.140625 -0.40625q-1.953125 -0.3125 -3.78125 -1.09375q-0.109375 -0.3125 -0.265625 -0.546875q-0.15625 -0.234375 -0.71875 -0.140625q-0.375 -0.515625 -0.765625 -0.953125q-0.390625 -0.453125 -0.703125 -1.015625zm31.194916 -5.890625q-0.046875 -0.40625 -0.1875 -0.75q-0.125 -0.34375 -0.28125 -0.75q-0.25 -0.625 -0.46875 -1.359375q-0.203125 -0.734375 -0.203125 -1.71875q0.109375 -0.515625 0.265625 -0.75q0.15625 -0.234375 0.3125 -0.390625l0.203125 -0.9375l0.78125 0q0.421875 0.046875 0.859375 0.046875q0.4375 0 0.859375 0q1.984375 0 4.0625 -0.15625q2.078125 -0.15625 4.265625 -0.359375q2.40625 -0.3125 5.15625 -0.46875q0.265625 -0.578125 0.34375 -0.734375q0.078125 -0.15625 0.1875 -0.359375l0.5625 -0.3125q1.203125 -0.0625 1.671875 0.28125q0.46875 0.34375 0.734375 0.65625q1.34375 -0.109375 2.75 -0.28125q1.40625 -0.1875 2.921875 -0.40625q2.078125 -0.25 4.203125 -0.515625q2.140625 -0.265625 4.171875 -0.265625q0.890625 0 1.671875 0.0625q0.78125 0.046875 1.515625 0.15625l0.625 0.46875q0.203125 0.359375 0.515625 0.671875q0.3125 0.3125 0.734375 0.625q0.78125 0.625 1.53125 1.5625q0.75 0.9375 0.546875 2.765625l-0.265625 0.515625q-0.203125 0.203125 -0.515625 0.421875l-0.515625 0.671875l-0.578125 0q-0.515625 0 -0.78125 0.078125q-0.265625 0.078125 -0.625 0.234375q-0.203125 0.109375 -0.46875 0.1875q-0.265625 0.078125 -0.578125 0.171875q-0.5625 -0.046875 -0.875 -0.046875q-0.3125 0 -0.734375 0q-1.5625 0 -3.390625 0.21875q-1.8125 0.203125 -3.53125 0.453125q-1.25 0.15625 -2.40625 0.296875q-1.140625 0.125 -2.078125 0.234375q-0.515625 1.34375 -0.9375 2.390625q-0.40625 1.03125 -0.875 2.078125q-0.46875 1.046875 -0.890625 2.109375q-0.421875 1.0625 -0.78125 2.375q-0.625 0.9375 -1.046875 1.796875q-0.40625 0.859375 -0.671875 1.953125q-0.78125 0.875 -1.125 1.921875q-0.328125 1.046875 -0.59375 1.765625l-0.203125 0.78125q-0.375 0.375 -0.453125 0.578125q-0.078125 0.203125 -0.28125 0.46875q-0.15625 0.671875 -0.421875 1.296875q-0.09375 0.265625 -0.203125 0.5625q-0.109375 0.28125 -0.046875 0.4375q-0.109375 0.5625 -0.3125 0.875q0 0.3125 -0.0625 0.625q-0.046875 0.3125 -0.09375 0.625q-0.109375 0.375 -0.171875 0.65625q-0.046875 0.28125 0.0625 0.546875q0.15625 0.203125 0.3125 0.421875q0.15625 0.203125 0.265625 0.515625q0.09375 0.109375 0.25 0.15625q0.15625 0.046875 0.265625 0.15625q0.421875 0.359375 0.78125 0.421875l0.515625 0.625q0.3125 1.875 -0.5625 2.90625q-0.9375 1.203125 -3.125 1.203125l-0.734375 -0.046875q-0.359375 -0.375 -0.421875 -0.46875q-0.46875 -0.21875 -0.78125 -0.34375q-0.3125 -0.125 -0.5625 -0.5q-0.109375 -0.09375 -0.265625 -0.125q-0.15625 -0.03125 -0.265625 -0.125q-0.515625 -0.15625 -0.828125 -0.375l-0.578125 -0.3125q0.0625 -0.515625 0.0625 -0.71875q-0.421875 -0.578125 -0.65625 -1.25q-0.234375 -0.6875 -0.390625 -1.40625q-0.15625 -0.578125 -0.296875 -1.046875q-0.125 -0.46875 -0.375 -0.828125q-0.109375 -3.65625 0.671875 -6.125q0.78125 -2.46875 1.71875 -4.8125q0.515625 -1.25 0.984375 -2.546875q0.46875 -1.3125 0.84375 -2.671875l0.5625 -0.5625q0.375 -0.3125 0.46875 -0.375q0 -0.671875 0.265625 -1.3125q0.265625 -0.65625 0.578125 -1.34375q0.203125 -0.40625 0.375 -0.8125q0.1875 -0.421875 0.25 -0.734375q-0.375 0 -0.65625 0.03125q-0.28125 0.015625 -0.59375 0.0625q-0.6875 0.15625 -1.3125 0.15625q-0.46875 0 -0.671875 -0.046875q-0.421875 0.203125 -0.78125 0.234375q-0.359375 0.03125 -0.734375 0.03125l-0.625 0l-0.625 0q-0.625 0 -0.984375 0.15625q-0.734375 0 -0.9375 0q-0.203125 0 -0.46875 0l-0.625 0l-0.625 0q-0.421875 0 -0.9375 -0.078125q-0.515625 -0.078125 -1.09375 -0.390625l-0.359375 -0.421875q-0.3125 -0.578125 -0.578125 -0.625l-0.578125 -0.15625l0 -0.578125zm32.70517 24.890625q-0.25 0.0625 -0.46875 -0.375q-0.203125 -0.453125 -0.46875 -0.875l0.578125 0q-0.359375 -1.140625 -0.1875 -2.09375q0.1875 -0.96875 0.4375 -1.875q0.265625 -0.921875 0.453125 -1.78125q0.1875 -0.859375 -0.1875 -1.796875q0.265625 0.15625 0.390625 -0.125q0.140625 -0.296875 0.21875 -0.734375q0.078125 -0.4375 0.046875 -0.9375q-0.03125 -0.5 -0.078125 -0.8125q0.671875 -1.609375 1.0625 -3.328125q0.390625 -1.71875 0.703125 -3.40625q0.3125 -1.703125 0.703125 -3.28125q0.390625 -1.59375 1.015625 -3.0q0.734375 -0.09375 1.53125 0.1875q0.8125 0.28125 1.078125 0.703125q1.609375 -1.25 2.859375 -3.015625q1.25 -1.78125 2.53125 -3.46875q1.28125 -1.6875 2.890625 -2.984375q1.609375 -1.3125 4.015625 -1.578125q1.25 0.890625 2.8125 1.90625q1.5625 1.015625 2.546875 2.53125q0.421875 0.25 0.796875 0.546875q0.390625 0.28125 0.8125 0.546875l0 0.78125q0.734375 0.671875 1.21875 1.59375q0.5 0.90625 0.890625 1.921875q0.390625 1.015625 0.75 2.0625q0.375 1.03125 0.84375 1.90625q-0.109375 0.3125 -0.09375 0.546875q0.03125 0.234375 0.109375 0.46875q0.078125 0.234375 0.125 0.53125q0.0625 0.28125 0.0625 0.703125q-0.203125 2.75 -1.796875 4.453125q-1.59375 1.6875 -3.859375 2.765625q-2.25 1.0625 -4.8125 1.8125q-2.546875 0.75 -4.625 1.640625q0 0.203125 0.234375 0.203125q0.234375 0 0.125 0.3125q1.5625 0.9375 2.421875 1.515625q0.859375 0.578125 1.609375 0.96875q0.765625 0.390625 1.671875 0.65625q0.90625 0.25 2.53125 0.609375q1.609375 0.375 2.515625 0.609375q0.90625 0.234375 1.640625 0.359375q0.734375 0.125 1.5625 0.234375q0.828125 0.109375 2.234375 0.265625q0.578125 0.5625 0.9375 1.34375q0.375 0.78125 0.53125 1.5625q0.15625 0.78125 0.078125 1.484375q-0.078125 0.703125 -0.453125 1.125q0.0625 0.203125 0.296875 0.1875q0.234375 -0.03125 0.484375 0.015625q-0.359375 0.265625 -0.625 0.640625q-0.25 0.359375 -0.515625 0.71875q-0.265625 0.359375 -0.609375 0.671875q-0.328125 0.3125 -0.84375 0.375q-1.875 0.71875 -4.796875 0.046875q-2.90625 -0.671875 -7.4375 -2.390625q-2.25 -0.84375 -3.65625 -1.515625q-1.40625 -0.671875 -2.453125 -1.328125q-1.03125 -0.65625 -1.921875 -1.40625q-0.875 -0.75 -2.03125 -1.796875q-0.15625 0.046875 -0.1875 0.203125q-0.015625 0.15625 -0.171875 0.21875q-0.265625 2.078125 -0.8125 3.390625q-0.546875 1.296875 -1.578125 2.640625q-0.84375 -0.15625 -1.125 0.15625q-0.28125 0.3125 -0.703125 0.578125q-0.515625 0.109375 -0.78125 -0.03125q-0.265625 -0.125 -0.46875 -0.28125q-0.203125 -0.15625 -0.46875 -0.3125q-0.265625 -0.15625 -0.828125 -0.109375q-0.15625 -0.46875 -0.3125 -0.90625q-0.15625 -0.4375 -0.84375 -0.390625q0.15625 -0.46875 0.109375 -0.796875q-0.046875 -0.34375 -0.15625 -0.625q-0.109375 -0.296875 -0.1875 -0.609375q-0.078125 -0.3125 0.078125 -0.734375zm17.40625 -23.796875q-0.6875 1.0 -1.515625 1.8125q-0.828125 0.796875 -1.640625 1.65625q-0.8125 0.859375 -1.4375 1.875q-0.625 1.015625 -0.875 2.421875q2.1875 -0.265625 4.578125 -1.21875q2.390625 -0.96875 4.53125 -1.859375q-0.265625 -1.921875 -1.359375 -3.09375q-1.09375 -1.171875 -2.28125 -1.59375zm19.366425 2.5q-0.109375 -0.671875 -0.265625 -0.828125q0.375 -0.9375 0.546875 -1.84375q0.1875 -0.921875 0.296875 -1.75q0.09375 -0.734375 0.21875 -1.359375q0.140625 -0.625 0.34375 -1.1875q0.890625 -0.21875 1.328125 -0.765625q0.453125 -0.546875 0.703125 -0.953125q0.9375 -0.0625 1.21875 0.25q0.296875 0.3125 0.65625 1.046875q0.265625 0.578125 0.734375 1.234375q0.46875 0.640625 1.40625 1.0q0.15625 0.578125 0.359375 1.109375q0.21875 0.515625 0.46875 1.078125q0.46875 1.09375 0.890625 2.265625q0.421875 1.171875 0.46875 2.21875q-0.625 1.1875 -0.96875 2.75q-0.328125 1.5625 -0.40625 3.15625q-0.078125 1.59375 0.078125 3.046875q0.15625 1.453125 0.515625 2.453125l0.3125 0.828125l1.140625 -0.109375q1.875 -0.46875 3.390625 -1.0625q1.515625 -0.59375 2.8125 -1.421875q1.296875 -0.84375 2.5 -1.90625q1.203125 -1.078125 2.5 -2.53125q1.25 -1.453125 2.234375 -3.296875q0.984375 -1.859375 1.640625 -3.828125q0.65625 -1.984375 1.015625 -3.953125q0.359375 -1.984375 0.46875 -3.703125q0.984375 -0.46875 1.09375 -1.515625l-0.15625 -0.671875q-0.15625 -0.265625 -0.140625 -0.5q0.03125 -0.234375 0.140625 -0.4375q0.421875 -1.203125 1.765625 -1.78125q0.9375 0.625 1.75 1.359375q0.8125 0.734375 1.484375 1.453125q0.109375 1.40625 0.421875 2.421875q0.3125 1.015625 0.671875 1.953125q0.359375 0.890625 0.640625 1.734375q0.296875 0.828125 0.40625 2.015625q-0.53125 1.5625 -0.765625 2.953125q-0.234375 1.375 -0.4375 2.875l-0.109375 0.578125q-0.9375 1.609375 -1.84375 3.3125q-0.90625 1.6875 -1.484375 2.9375q-0.3125 0.3125 -0.546875 0.734375q-0.234375 0.40625 -0.4375 0.828125q-0.109375 0.15625 -0.296875 0.53125q-0.171875 0.359375 -0.328125 0.515625l-1.25 -0.46875l-0.3125 1.609375l-0.84375 0.203125l-0.625 0.734375q-1.1875 2.078125 -2.515625 3.484375q-1.328125 1.40625 -2.96875 2.5q-1.640625 1.09375 -3.703125 2.0625q-2.046875 0.96875 -4.703125 2.0625q-1.046875 -0.15625 -1.8125 -0.1875q-0.75 -0.03125 -1.46875 -0.078125q-0.734375 0 -1.421875 -0.046875q-0.671875 -0.0625 -1.546875 -0.15625q-0.21875 -0.46875 -0.578125 -0.671875q-0.359375 -0.21875 -0.671875 -0.21875q-1.046875 -0.515625 -1.578125 -1.453125q-0.515625 -0.9375 -1.078125 -2.09375q-0.265625 -0.625 -0.5625 -1.25q-0.28125 -0.625 -0.6875 -1.1875l1.03125 -0.3125l-1.34375 -1.5625q-0.15625 -0.15625 -0.34375 -0.3125q-0.1875 -0.15625 -0.34375 -0.375l0 -0.984375q-0.203125 -4.265625 -0.1875 -7.890625q0.03125 -3.625 0.96875 -6.375l0.109375 -0.265625zm38.173462 21.25q-1.515625 -1.140625 -2.484375 -2.859375q-0.953125 -1.71875 -1.5 -3.640625q-0.546875 -1.9375 -0.734375 -3.984375q-0.171875 -2.0625 -0.125 -3.9375q0.46875 -1.40625 1.140625 -2.578125q0.6875 -1.171875 1.515625 -2.234375q0.828125 -1.078125 1.734375 -2.03125q0.921875 -0.96875 1.8125 -1.953125q0.3125 0 0.5625 0.15625q0.21875 -0.578125 0.625 -0.984375q0.421875 -0.421875 0.890625 -0.765625q0.46875 -0.34375 0.9375 -0.671875q0.46875 -0.34375 0.78125 -0.8125q1.296875 -0.3125 2.3125 -0.875q1.015625 -0.578125 1.953125 -1.25q0.9375 -0.6875 1.921875 -1.25q1.0 -0.578125 2.296875 -0.890625q0.46875 -0.53125 1.171875 -0.890625q0.703125 -0.359375 1.40625 -0.671875q0.703125 -0.3125 1.359375 -0.671875q0.65625 -0.375 1.0625 -1.0q0.3125 0.421875 0.890625 0.296875q0.578125 -0.140625 1.046875 -0.296875q0.3125 -0.046875 0.515625 0.109375q0.203125 0.15625 0.390625 0.34375q0.1875 0.171875 0.3125 0.234375q0.125 0.046875 0.28125 -0.328125q0.421875 0.0625 0.234375 0.375q-0.1875 0.3125 -0.234375 0.40625q0.515625 -0.09375 0.859375 0.1875q0.34375 0.28125 1.0625 0.390625q0.265625 0.265625 0.15625 0.421875q-0.09375 0.15625 -0.15625 0.515625q1.875 0.578125 2.390625 1.796875q0.53125 1.21875 0.109375 2.546875q-0.40625 1.328125 -1.53125 2.453125q-1.125 1.125 -2.46875 1.484375q-1.609375 0.421875 -3.0 0.84375q-1.375 0.40625 -2.65625 0.921875q-1.265625 0.515625 -2.390625 1.21875q-1.125 0.703125 -1.953125 1.640625q-1.453125 0.421875 -2.625 1.15625q-1.171875 0.71875 -2.1875 1.609375q-1.015625 0.890625 -1.953125 1.859375q-0.9375 0.953125 -1.875 1.890625q0 0.890625 -0.3125 1.359375q-0.3125 0.46875 -0.6875 0.9375q0.109375 0.984375 0.4375 1.6875q0.34375 0.703125 0.71875 1.4375q4.15625 1.25 8.8125 1.53125q4.671875 0.28125 9.25 0.34375q0.46875 0.625 1.0625 1.171875q0.609375 0.546875 1.09375 1.125q0.5 0.5625 0.78125 1.328125q0.296875 0.75 0.140625 1.78125q-0.890625 0.890625 -1.9375 1.703125q-1.03125 0.796875 -2.078125 1.578125q-0.46875 0.0625 -1.125 0.015625q-0.640625 -0.0625 -1.34375 -0.0625q-0.703125 0 -1.40625 0.078125q-0.703125 0.078125 -1.328125 0.34375q-3.28125 -0.109375 -6.71875 -0.8125q-3.4375 -0.703125 -6.359375 -1.6875q-0.5625 -0.6875 -1.1875 -1.28125q-0.625 -0.59375 -1.671875 -0.859375zm28.897827 -24.84375q-0.046875 -0.40625 -0.1875 -0.75q-0.125 -0.34375 -0.28125 -0.75q-0.25 -0.625 -0.46875 -1.359375q-0.203125 -0.734375 -0.203125 -1.71875q0.109375 -0.515625 0.265625 -0.75q0.15625 -0.234375 0.3125 -0.390625l0.203125 -0.9375l0.78125 0q0.421875 0.046875 0.859375 0.046875q0.4375 0 0.859375 0q1.984375 0 4.0625 -0.15625q2.078125 -0.15625 4.265625 -0.359375q2.40625 -0.3125 5.15625 -0.46875q0.265625 -0.578125 0.34375 -0.734375q0.078125 -0.15625 0.1875 -0.359375l0.5625 -0.3125q1.203125 -0.0625 1.671875 0.28125q0.46875 0.34375 0.734375 0.65625q1.34375 -0.109375 2.75 -0.28125q1.40625 -0.1875 2.921875 -0.40625q2.078125 -0.25 4.203125 -0.515625q2.140625 -0.265625 4.171875 -0.265625q0.890625 0 1.671875 0.0625q0.78125 0.046875 1.515625 0.15625l0.625 0.46875q0.203125 0.359375 0.515625 0.671875q0.3125 0.3125 0.734375 0.625q0.78125 0.625 1.53125 1.5625q0.75 0.9375 0.546875 2.765625l-0.265625 0.515625q-0.203125 0.203125 -0.515625 0.421875l-0.515625 0.671875l-0.578125 0q-0.515625 0 -0.78125 0.078125q-0.265625 0.078125 -0.625 0.234375q-0.203125 0.109375 -0.46875 0.1875q-0.265625 0.078125 -0.578125 0.171875q-0.5625 -0.046875 -0.875 -0.046875q-0.3125 0 -0.734375 0q-1.5625 0 -3.390625 0.21875q-1.8125 0.203125 -3.53125 0.453125q-1.25 0.15625 -2.40625 0.296875q-1.140625 0.125 -2.078125 0.234375q-0.515625 1.34375 -0.9375 2.390625q-0.40625 1.03125 -0.875 2.078125q-0.46875 1.046875 -0.890625 2.109375q-0.421875 1.0625 -0.78125 2.375q-0.625 0.9375 -1.046875 1.796875q-0.40625 0.859375 -0.671875 1.953125q-0.78125 0.875 -1.125 1.921875q-0.328125 1.046875 -0.59375 1.765625l-0.203125 0.78125q-0.375 0.375 -0.453125 0.578125q-0.078125 0.203125 -0.28125 0.46875q-0.15625 0.671875 -0.421875 1.296875q-0.09375 0.265625 -0.203125 0.5625q-0.109375 0.28125 -0.046875 0.4375q-0.109375 0.5625 -0.3125 0.875q0 0.3125 -0.0625 0.625q-0.046875 0.3125 -0.09375 0.625q-0.109375 0.375 -0.171875 0.65625q-0.046875 0.28125 0.0625 0.546875q0.15625 0.203125 0.3125 0.421875q0.15625 0.203125 0.265625 0.515625q0.09375 0.109375 0.25 0.15625q0.15625 0.046875 0.265625 0.15625q0.421875 0.359375 0.78125 0.421875l0.515625 0.625q0.3125 1.875 -0.5625 2.90625q-0.9375 1.203125 -3.125 1.203125l-0.734375 -0.046875q-0.359375 -0.375 -0.421875 -0.46875q-0.46875 -0.21875 -0.78125 -0.34375q-0.3125 -0.125 -0.5625 -0.5q-0.109375 -0.09375 -0.265625 -0.125q-0.15625 -0.03125 -0.265625 -0.125q-0.515625 -0.15625 -0.828125 -0.375l-0.578125 -0.3125q0.0625 -0.515625 0.0625 -0.71875q-0.421875 -0.578125 -0.65625 -1.25q-0.234375 -0.6875 -0.390625 -1.40625q-0.15625 -0.578125 -0.296875 -1.046875q-0.125 -0.46875 -0.375 -0.828125q-0.109375 -3.65625 0.671875 -6.125q0.78125 -2.46875 1.71875 -4.8125q0.515625 -1.25 0.984375 -2.546875q0.46875 -1.3125 0.84375 -2.671875l0.5625 -0.5625q0.375 -0.3125 0.46875 -0.375q0 -0.671875 0.265625 -1.3125q0.265625 -0.65625 0.578125 -1.34375q0.203125 -0.40625 0.375 -0.8125q0.1875 -0.421875 0.25 -0.734375q-0.375 0 -0.65625 0.03125q-0.28125 0.015625 -0.59375 0.0625q-0.6875 0.15625 -1.3125 0.15625q-0.46875 0 -0.671875 -0.046875q-0.421875 0.203125 -0.78125 0.234375q-0.359375 0.03125 -0.734375 0.03125l-0.625 0l-0.625 0q-0.625 0 -0.984375 0.15625q-0.734375 0 -0.9375 0q-0.203125 0 -0.46875 0l-0.625 0l-0.625 0q-0.421875 0 -0.9375 -0.078125q-0.515625 -0.078125 -1.09375 -0.390625l-0.359375 -0.421875q-0.3125 -0.578125 -0.578125 -0.625l-0.578125 -0.15625l0 -0.578125zm32.1427 30.0q-0.734375 -0.46875 -1.171875 -1.1875q-0.453125 -0.734375 -0.734375 -1.5625q-0.28125 -0.84375 -0.46875 -1.75q-0.1875 -0.921875 -0.390625 -1.75q0 -0.734375 0.3125 -1.0625q0.3125 -0.34375 0.671875 -0.65625q1.25 -0.046875 2.234375 -0.203125q1.0 -0.15625 1.9375 -0.3125q0.9375 -0.15625 1.875 -0.28125q0.9375 -0.140625 2.03125 -0.140625q0.78125 -1.609375 1.453125 -3.09375q0.6875 -1.484375 1.3125 -2.84375q0.3125 -1.296875 0.796875 -2.421875q0.5 -1.125 0.96875 -2.140625q0.46875 -1.015625 0.828125 -2.03125q0.375 -1.015625 0.46875 -2.15625q0.625 -1.828125 1.125 -3.359375q0.5 -1.53125 0.75 -3.671875q-1.96875 0.3125 -3.171875 0.609375q-1.203125 0.28125 -1.71875 0.546875q-1.046875 -0.0625 -1.640625 -0.421875q-0.59375 -0.359375 -0.96875 -0.875q-0.359375 -0.53125 -0.625 -1.203125q-0.25 -0.6875 -0.625 -1.40625q0.21875 -0.46875 0.109375 -1.375q-0.109375 -0.921875 -0.625 -1.34375q0.421875 -0.09375 0.625 -0.6875q0.203125 -0.609375 0.046875 -0.921875q0.890625 -0.265625 1.875 -0.34375q1.0 -0.078125 1.953125 -0.15625q0.96875 -0.078125 1.84375 -0.203125q0.890625 -0.125 1.515625 -0.546875q2.71875 -0.109375 5.65625 -0.203125q2.9375 -0.109375 5.4375 -0.265625q0.9375 0.3125 2.15625 0.3125q1.234375 0 2.453125 0.15625q1.21875 0.15625 2.1875 0.6875q0.96875 0.515625 1.328125 1.8125q0.78125 0.109375 1.171875 0.421875q0.390625 0.3125 0.484375 0.75q0.109375 0.4375 0.078125 0.984375q-0.015625 0.546875 -0.015625 1.078125q-0.828125 0.625 -2.109375 1.015625q-1.28125 0.390625 -2.796875 0.625q-1.5 0.234375 -3.140625 0.3125q-1.640625 0.078125 -3.203125 0.125q-0.25 1.71875 -0.90625 4.03125q-0.65625 2.3125 -1.328125 4.53125q-0.671875 2.21875 -1.171875 3.96875q-0.5 1.734375 -0.4375 2.25q-0.53125 1.203125 -0.875 2.046875q-0.328125 0.828125 -0.625 1.5625q-0.28125 0.71875 -0.5625 1.421875q-0.28125 0.703125 -0.703125 1.59375l3.546875 0q0.09375 0.5625 0.453125 0.78125q0.375 0.203125 0.78125 0.359375q0.421875 0.15625 0.765625 0.390625q0.34375 0.234375 0.34375 0.75q0.984375 0.265625 1.234375 0.796875q0.265625 0.515625 0.140625 1.109375q-0.125 0.59375 -0.515625 1.21875q-0.390625 0.625 -0.765625 1.09375q-0.46875 -0.09375 -0.890625 0.25q-0.40625 0.328125 -0.765625 0.75q-1.515625 -0.21875 -2.984375 -0.0625q-1.453125 0.15625 -2.703125 0.265625q-0.25 0.046875 -0.203125 0.28125q0.046875 0.234375 -0.109375 0.34375q-1.609375 -0.515625 -3.3125 -0.40625q-1.6875 0.09375 -3.4375 0.484375q-1.734375 0.390625 -3.5625 0.828125q-1.8125 0.453125 -3.6875 0.5zm39.153564 -0.421875q-2.28125 0.3125 -4.15625 -0.203125q-1.875 -0.515625 -3.359375 -1.609375q-1.484375 -1.09375 -2.5625 -2.609375q-1.0625 -1.515625 -1.734375 -3.234375q-0.46875 -3.53125 0.25 -6.421875q0.734375 -2.890625 2.140625 -5.34375q1.40625 -2.453125 3.203125 -4.578125q1.796875 -2.140625 3.46875 -4.109375q0.359375 0.15625 0.59375 0q0.234375 -0.15625 0.40625 -0.421875q0.1875 -0.265625 0.421875 -0.515625q0.234375 -0.265625 0.546875 -0.375q0.21875 -0.46875 0.546875 -0.78125q0.34375 -0.3125 0.734375 -0.59375q0.390625 -0.28125 0.71875 -0.59375q0.34375 -0.3125 0.609375 -0.78125q0.515625 -0.109375 0.90625 -0.359375q0.390625 -0.265625 0.734375 -0.578125q0.34375 -0.3125 0.703125 -0.578125q0.359375 -0.265625 0.890625 -0.421875l0 -0.671875q1.140625 -0.515625 1.65625 -1.140625q0.53125 -0.625 1.25 -1.625q0.578125 -0.046875 0.90625 -0.046875q0.34375 0 1.078125 -0.109375q0.46875 -0.875 0.875 -1.296875q0.421875 -0.421875 1.203125 -0.9375q0.78125 0.421875 1.65625 0.5q0.890625 0.078125 1.625 0.796875q0.046875 0.625 0.359375 0.96875q0.3125 0.34375 0.671875 0.625q0.375 0.28125 0.734375 0.59375q0.375 0.3125 0.46875 0.890625q0.265625 0 0.34375 -0.09375q0.078125 -0.109375 0.34375 -0.0625q0.09375 0.421875 0.203125 0.6875q0.109375 0.25 0.234375 0.46875q0.125 0.203125 0.25 0.46875q0.140625 0.25 0.25 0.609375q-0.265625 0.625 -0.484375 1.328125q-0.203125 0.703125 -0.828125 0.96875q0 0.421875 0.3125 0.453125q0.3125 0.015625 0.375 0.375q0.046875 0.46875 -0.15625 0.78125q1.453125 2.453125 2.640625 5.140625q1.203125 2.671875 2.71875 5.125q-0.109375 0.71875 0.078125 1.421875q0.1875 0.703125 0.46875 1.390625q0.28125 0.671875 0.546875 1.359375q0.265625 0.671875 0.359375 1.34375q0.109375 0.890625 0 1.90625q-0.09375 1.015625 -0.40625 1.953125q-0.3125 0.9375 -0.84375 1.75q-0.515625 0.796875 -1.1875 1.21875q-0.84375 1.03125 -2.09375 1.6875q-1.25 0.65625 -2.28125 1.53125q-0.734375 0.421875 -1.578125 0.609375q-0.828125 0.171875 -1.703125 0.390625q-0.6875 0.40625 -1.625 0.796875q-0.921875 0.390625 -1.921875 0.703125q-0.984375 0.3125 -1.984375 0.5q-0.984375 0.1875 -1.765625 0.078125q-1.875 0.671875 -3.640625 0.9375q-1.765625 0.265625 -4.171875 -0.265625zm0.6875 -18.953125q-0.53125 1.203125 -1.234375 2.171875q-0.703125 0.953125 -1.375 1.953125q-0.671875 0.984375 -1.171875 2.109375q-0.5 1.109375 -0.546875 2.625q1.046875 0.875 2.46875 1.0625q1.4375 0.1875 2.9375 0.0625q1.515625 -0.140625 3.03125 -0.390625q1.515625 -0.265625 2.703125 -0.265625q0 -0.46875 0.421875 -0.46875q2.1875 -0.21875 4.0625 -1.234375q1.875 -1.015625 3.90625 -2.046875q0.25 -0.625 0.671875 -1.09375q0.421875 -0.46875 0.46875 -1.359375q-0.265625 -0.46875 -0.34375 -0.78125q-0.078125 -0.3125 -0.078125 -0.9375q-1.34375 -1.875 -2.34375 -4.078125q-0.984375 -2.21875 -2.28125 -4.203125q-0.109375 0.265625 -0.421875 0.53125q-0.3125 0.25 -0.671875 -0.109375q-0.15625 0.515625 -0.46875 0.703125q-0.3125 0.171875 -0.703125 0.171875q-0.390625 0 -0.78125 -0.15625q-0.390625 -0.15625 -0.703125 -0.40625q-1.828125 1.453125 -3.625 2.8125q-1.796875 1.34375 -3.25 3.171875q-0.265625 0.15625 -0.3125 0.109375q-0.046875 -0.0625 -0.359375 0.046875zm35.871094 13.859375q-0.515625 0.40625 -0.625 1.0625q-0.09375 0.65625 -0.25 1.28125q-0.15625 0.625 -0.546875 1.0625q-0.390625 0.4375 -1.390625 0.390625q-0.203125 0.265625 -0.078125 0.3125q0.140625 0.046875 0.234375 0.46875q-0.71875 -0.109375 -1.03125 0.109375q-0.3125 0.203125 -0.78125 0.3125q-1.203125 -0.375 -2.015625 -1.328125q-0.796875 -0.96875 -1.40625 -2.109375q-0.59375 -1.15625 -1.046875 -2.34375q-0.4375 -1.203125 -0.90625 -2.09375q0 -0.203125 0.1875 -0.171875q0.1875 0.015625 0.34375 0.015625q-0.265625 -0.515625 -0.390625 -1.15625q-0.140625 -0.65625 -0.5 -1.078125q1.515625 -3.234375 3.234375 -6.75q1.71875 -3.515625 3.453125 -7.125q1.75 -3.625 3.484375 -7.296875q1.75 -3.671875 3.375 -7.203125q1.453125 0.515625 2.828125 1.21875q1.390625 0.703125 2.53125 1.640625q1.140625 0.9375 1.953125 2.171875q0.8125 1.21875 1.0625 2.78125q-0.09375 0.3125 -0.25 0.203125q-0.15625 -0.109375 -0.265625 0.109375q0.265625 0.3125 0.28125 0.4375q0.03125 0.125 -0.03125 0.265625q-0.046875 0.125 -0.046875 0.34375q0 0.203125 0.265625 0.5625q-0.265625 -0.046875 -0.375 0.078125q-0.09375 0.125 -0.359375 0.03125q0.265625 0.71875 0.15625 1.140625q-0.09375 0.421875 -0.3125 0.765625q-0.203125 0.328125 -0.34375 0.71875q-0.125 0.390625 0.09375 1.0625q-0.21875 0 -0.296875 0.078125q-0.078125 0.078125 -0.125 0.1875q-0.046875 0.09375 -0.125 0.171875q-0.078125 0.078125 -0.296875 0.03125q0.15625 1.359375 0.109375 2.734375q-0.046875 1.375 -0.109375 2.8125q-0.046875 1.4375 0 2.953125q0.0625 1.5 0.421875 3.109375q2.234375 -1.296875 3.609375 -3.375q1.390625 -2.09375 2.1875 -4.640625q0.8125 -2.546875 1.25 -5.453125q0.453125 -2.921875 0.921875 -5.953125q0.5625 -0.5625 0.90625 -1.390625q0.34375 -0.84375 0.578125 -1.71875q0.234375 -0.890625 0.46875 -1.796875q0.234375 -0.921875 0.640625 -1.65625q0.9375 0.109375 1.59375 0.5625q0.65625 0.4375 1.21875 0.984375q0.578125 0.546875 1.203125 1.015625q0.625 0.46875 1.5625 0.625q0.734375 1.03125 1.359375 2.0q0.625 0.96875 0.828125 2.15625q-0.3125 0.53125 -0.46875 1.15625q-0.15625 0.625 -0.34375 1.25q-0.171875 0.625 -0.484375 1.140625q-0.3125 0.515625 -0.890625 0.890625q-0.15625 1.546875 -0.46875 2.90625q-0.3125 1.359375 -0.578125 2.65625q-0.25 1.296875 -0.46875 2.703125q-0.203125 1.40625 -0.15625 3.078125q-0.46875 1.515625 -1.046875 3.109375q-0.5625 1.578125 -0.828125 2.9375q-0.984375 0.78125 -1.5625 1.921875q-0.5625 1.140625 -1.1875 2.296875q-0.265625 0.203125 -0.328125 0.078125q-0.046875 -0.140625 -0.453125 -0.1875q0.046875 0.46875 -0.1875 0.609375q-0.234375 0.125 0.03125 0.75q-0.890625 0.40625 -1.5625 1.09375q-0.671875 0.671875 -1.484375 1.25q-0.8125 0.5625 -1.875 0.75q-1.0625 0.1875 -2.78125 -0.4375q-2.5625 -1.875 -4.59375 -4.328125q-2.03125 -2.453125 -3.21875 -5.78125q-0.53125 0.15625 -0.796875 0.6875q-0.25 0.515625 -0.46875 1.09375q-0.203125 0.5625 -0.40625 1.03125q-0.203125 0.46875 -0.625 0.46875q-0.109375 0.46875 -0.390625 0.859375q-0.28125 0.390625 -0.546875 0.78125q-0.265625 0.390625 -0.390625 0.859375q-0.125 0.46875 0.125 1.046875z" fill-rule="nonzero"/></g></svg>